<svg width="16" height="16" viewBox="0 0 16 16" fill="none" xmlns="http://www.w3.org/2000/svg">
<path d="M11.1924 7.70731C11.3889 7.75448 11.5642 7.91697 11.6734 8.15326C11.7925 8.41067 11.8045 8.69107 11.7048 8.88504C11.6728 8.947 11.623 9.04872 11.6206 9.05355L11.5799 9.12804C11.3237 9.59757 10.8949 10.3833 10.3073 10.3736C10.1651 10.3703 10.0472 10.3104 9.96647 10.2007C9.68731 9.82133 9.93249 8.97324 9.94312 8.93723C10.0052 8.72668 10.3499 7.67653 11.0418 7.68798C11.0914 7.68877 11.1421 7.69528 11.1924 7.70731ZM10.2167 11.8097C10.7232 11.8179 11.258 11.633 11.684 11.3018C12.4818 10.6818 12.9968 9.65163 13.4169 8.73467C14.6074 6.13564 14.551 4.30497 13.2395 2.97354C12.663 2.38818 11.9032 2.03181 11.2071 2.02037C10.8687 2.01474 10.5479 2.08805 10.2537 2.23841C9.57853 2.58323 8.91908 3.42876 9.09333 4.7675C9.13486 5.08588 9.49588 5.28863 9.80663 5.29376C9.86762 5.29474 9.92544 5.28823 9.97839 5.27442C10.4337 5.15593 10.5464 4.73405 10.5003 4.37867C10.4691 4.13814 10.5468 3.88724 10.7086 3.70758C10.8505 3.54982 11.0398 3.46467 11.2414 3.46813C11.2751 3.46872 11.3097 3.47178 11.3438 3.4773C11.9208 3.57142 12.4141 4.12995 12.6472 4.6417C12.9138 5.22756 12.9183 5.95913 12.6603 6.8165L12.6063 6.99567L12.4734 6.86326C12.0869 6.47819 11.5904 6.26153 11.0751 6.25304C10.7978 6.24841 10.5148 6.30257 10.2336 6.41376C9.3559 6.76105 8.60466 7.83291 8.40657 9.0203C8.24026 10.0183 8.4916 10.8851 9.09651 11.3987C9.40458 11.6606 9.79202 11.8026 10.2167 11.8097ZM11.599 1.517C11.6098 1.51719 11.6208 1.51739 11.6316 1.51759C11.8139 1.52055 11.977 1.44754 12.1107 1.32974C12.2448 1.21154 12.3049 1.03316 12.3157 0.860503C12.326 0.694159 12.2413 0.502557 12.1265 0.384756C12.0065 0.261527 11.8265 0.184082 11.654 0.181122C11.6431 0.180924 11.6323 0.180724 11.6213 0.180625C11.439 0.177567 11.2759 0.250577 11.1423 0.368477C11.0082 0.486773 10.948 0.665052 10.9374 0.837808C10.927 1.00405 11.0118 1.19556 11.1265 1.31346C11.2464 1.43669 11.4264 1.51423 11.599 1.517ZM14.8987 3.2342C14.8347 3.16849 14.7387 3.12715 14.6467 3.12557C14.6408 3.12547 14.6351 3.12538 14.6293 3.12528C14.532 3.1236 14.445 3.16257 14.3738 3.22552C14.3023 3.28846 14.2702 3.38357 14.2644 3.47572C14.2589 3.56442 14.3041 3.66654 14.3653 3.72948C14.4293 3.79519 14.5253 3.83653 14.6174 3.83801C14.6231 3.83811 14.6289 3.8382 14.6348 3.8383C14.7319 3.83988 14.8189 3.80101 14.8903 3.73816C14.9618 3.67502 14.9939 3.57991 14.9996 3.48786C15.005 3.39906 14.9599 3.29695 14.8987 3.2342ZM13.7193 2.80009C13.7994 2.88217 13.9194 2.93397 14.0343 2.93575C14.0416 2.93594 14.0488 2.93604 14.0562 2.93614C14.1777 2.93821 14.2864 2.88948 14.3755 2.81094C14.4649 2.73211 14.505 2.61332 14.5121 2.49818C14.519 2.38729 14.4625 2.25952 14.386 2.18099C14.306 2.0988 14.186 2.04711 14.0711 2.04523C14.0638 2.04513 14.0566 2.04503 14.0492 2.04484C13.9277 2.04286 13.819 2.0916 13.7299 2.17004C13.6405 2.24897 13.6004 2.36775 13.5932 2.48289C13.5864 2.59379 13.6428 2.72155 13.7193 2.80009ZM13.1136 2.07818C13.1226 2.07828 13.1317 2.07848 13.1408 2.07867C13.2927 2.08114 13.4286 2.02027 13.54 1.9221C13.6517 1.82354 13.7019 1.67495 13.7109 1.53101C13.7194 1.39249 13.6489 1.23275 13.5532 1.13458C13.4532 1.03188 13.3032 0.967253 13.1595 0.964984C13.1504 0.964787 13.1413 0.96469 13.1323 0.964493C12.9804 0.961928 12.8444 1.0228 12.733 1.12107C12.6212 1.21963 12.5711 1.36812 12.5622 1.51206C12.5537 1.65068 12.6242 1.81031 12.7198 1.90848C12.8198 2.01119 12.9698 2.07572 13.1136 2.07818ZM8.83077 1.04609C8.81209 0.971793 8.81328 0.897699 8.83454 0.824097C8.84259 0.771215 8.84398 0.735104 8.85799 0.690509C8.87676 0.630819 8.92306 0.533437 8.95216 0.477891C8.95703 0.468419 8.9621 0.459641 8.96796 0.450663C9.00214 0.397978 9.06919 0.317372 9.11191 0.271198C9.17181 0.206476 9.25377 0.156355 9.326 0.107222C9.42355 0.0478274 9.52836 0.0164532 9.64032 0.013296C9.75258 -0.00969213 9.86425 -0.00288374 9.97541 0.0338183C10.0845 0.0614435 10.179 0.112845 10.2589 0.188025C10.3495 0.248406 10.4205 0.327731 10.4717 0.425998C10.5716 0.621446 10.6193 0.857149 10.5457 1.07095C10.5445 1.07381 10.5431 1.07677 10.5418 1.07973C10.5362 1.11436 10.5289 1.14899 10.5189 1.18362C10.5119 1.22003 10.4489 1.35736 10.4291 1.39002C10.4079 1.42544 10.3205 1.53387 10.29 1.56317C10.2578 1.59415 10.1492 1.67397 10.1106 1.69508C10.0689 1.71797 9.94541 1.7669 9.89991 1.77815C9.85362 1.7895 9.71384 1.80558 9.66695 1.8044C9.62055 1.80321 9.47909 1.782 9.43538 1.76888C9.39186 1.75585 9.26679 1.7007 9.22874 1.67732C9.13089 1.61714 9.05896 1.54176 8.9915 1.45217C8.94034 1.39919 8.90528 1.33714 8.8865 1.266C8.86633 1.23305 8.85252 1.19822 8.84487 1.16152C8.83663 1.12363 8.83186 1.08516 8.83077 1.04609Z" fill="#0B8ED8"/>
<path d="M5.70653 12.4911L5.7726 12.7291C5.91764 13.2453 6.16054 14.1093 5.73008 14.5033C5.64276 14.5832 5.54282 14.6228 5.43284 14.621C4.9397 14.6128 4.48192 13.7587 4.46265 13.7224C4.34621 13.5025 3.80071 12.3842 4.4996 11.9758C4.59298 11.9212 4.70366 11.8946 4.82853 11.8966C5.16889 11.9023 5.60272 12.1417 5.70653 12.4911ZM5.51182 15.9999C6.33906 16.0087 7.04232 15.5517 7.3032 14.8358C7.50278 14.2881 7.43274 13.6916 7.32823 13.1324C7.31462 13.0722 7.30697 13.0358 7.29793 12.993L7.28253 12.92C7.03705 11.7743 6.98967 10.5715 6.97556 9.54613C6.97248 9.31941 6.99851 8.69143 7.00258 8.64891C7.0153 8.51512 7.00864 8.39584 6.99294 8.23502C6.96831 7.98314 6.92777 7.71192 6.79853 7.43527C6.44884 6.68732 5.71011 6.21424 4.87045 6.20033C4.58951 6.19569 4.31065 6.24235 4.04133 6.33914C2.93046 6.73833 2.06716 7.75691 1.7885 8.99728C1.72372 9.28557 1.82347 9.48901 1.91854 9.60889C2.06845 9.79782 2.31492 9.91779 2.56169 9.92184C2.71439 9.9243 3.08057 9.8805 3.18418 9.41965C3.34125 8.72043 3.92917 7.61671 4.83797 7.6318C4.85049 7.632 4.8632 7.6325 4.87582 7.63299C5.06576 7.64266 5.21756 7.70935 5.32694 7.8313C5.54838 8.07815 5.54222 8.48049 5.51917 8.83824C5.48838 9.313 5.48629 9.82909 5.51291 10.3721L5.52007 10.5192L5.37562 10.4861C5.22998 10.4526 5.07759 10.4345 4.92251 10.4319C4.83072 10.4304 4.73604 10.4343 4.64097 10.4437C3.99096 10.507 3.43851 10.8637 3.08534 11.4479C2.68567 12.109 2.61613 12.9498 2.90512 13.6451C3.73415 15.8037 5.10074 15.9931 5.4997 15.9997L5.51182 15.9999ZM4.43215 5.66667C4.44308 5.66686 4.4539 5.66696 4.46473 5.66716C4.63729 5.67002 4.81979 5.59839 4.94387 5.47931C5.06249 5.36535 5.15349 5.17661 5.14882 5.00997C5.14395 4.83702 5.08971 4.65687 4.95966 4.53433C4.83002 4.41218 4.66948 4.33375 4.48718 4.33079C4.47626 4.33059 4.46543 4.33039 4.4545 4.3302C4.28194 4.32734 4.09954 4.39887 3.97546 4.51805C3.85684 4.632 3.76575 4.82064 3.77051 4.98728C3.77538 5.16024 3.82953 5.34039 3.95967 5.46303C4.08921 5.58527 4.24985 5.66361 4.43215 5.66667ZM1.63431 7.28304C1.56517 7.21782 1.47954 7.17609 1.38228 7.17441C1.37652 7.17431 1.37075 7.17421 1.36489 7.17411C1.2729 7.17254 1.17554 7.21082 1.10938 7.27435C1.04609 7.33513 0.997515 7.43567 1.0001 7.52466C1.00268 7.61681 1.03159 7.7129 1.10093 7.77832C1.17008 7.84343 1.25571 7.88527 1.35297 7.88694C1.35873 7.88704 1.36459 7.88714 1.37035 7.88724C1.46245 7.88872 1.5597 7.85054 1.62587 7.787C1.68915 7.72622 1.73773 7.62559 1.73515 7.53679C1.73256 7.44445 1.70366 7.34845 1.63431 7.28304ZM1.96145 7.00432C1.96871 7.00442 1.97596 7.00461 1.98321 7.00471C2.09825 7.00668 2.21995 6.95893 2.3026 6.87951C2.38168 6.80344 2.44238 6.67775 2.4393 6.56665C2.43592 6.45142 2.39986 6.33125 2.31313 6.24946C2.2267 6.16806 2.11971 6.11577 1.99821 6.1138C1.99086 6.1137 1.98361 6.1135 1.97636 6.11341C1.86141 6.11143 1.73972 6.15918 1.65706 6.2387C1.57798 6.31467 1.51719 6.44037 1.52037 6.55146C1.52364 6.6667 1.5598 6.78687 1.64653 6.86866C1.73286 6.95006 1.83996 7.00235 1.96145 7.00432ZM2.92609 6.17783C2.93513 6.17793 2.94417 6.17813 2.95321 6.17823C3.09696 6.18069 3.24905 6.121 3.35247 6.02175C3.45132 5.92674 3.52722 5.76957 3.52324 5.63066C3.51917 5.48661 3.47407 5.33644 3.36559 5.23423C3.2576 5.13251 3.12378 5.0672 2.97188 5.06463C2.96284 5.06444 2.9537 5.06434 2.94466 5.06414C2.80091 5.06177 2.64882 5.12136 2.5455 5.22072C2.44655 5.31563 2.37075 5.47299 2.37463 5.61171C2.3787 5.75585 2.4239 5.90592 2.53229 6.00823C2.64037 6.11005 2.77409 6.17536 2.92609 6.17783ZM5.53239 5.25614C5.46593 5.03997 5.52156 4.80604 5.62795 4.61395C5.68249 4.51736 5.75591 4.4405 5.8485 4.38308C5.93095 4.31066 6.02712 4.26232 6.137 4.23834C6.24945 4.20539 6.36131 4.20223 6.47268 4.22887C6.58454 4.23588 6.68816 4.27061 6.78373 4.33326C6.85426 4.38476 6.93443 4.43754 6.99215 4.50414C7.03328 4.55169 7.09765 4.63437 7.13004 4.68824C7.1356 4.69732 7.14027 4.70629 7.14494 4.71596C7.17216 4.7724 7.21508 4.87135 7.23187 4.93164C7.24438 4.97673 7.24459 5.01274 7.25084 5.06582C7.26972 5.14021 7.26843 5.2142 7.24717 5.2879C7.24478 5.32688 7.23882 5.36516 7.22928 5.40275C7.22044 5.43925 7.20534 5.47358 7.18418 5.50595C7.16302 5.57639 7.12597 5.63716 7.07292 5.68837C7.00258 5.77578 6.92817 5.84869 6.82823 5.90562C6.78959 5.92762 6.66263 5.97873 6.61872 5.99028C6.57461 6.00192 6.43255 6.01849 6.38615 6.0181C6.33916 6.0178 6.20008 5.99708 6.15418 5.98416C6.10908 5.97163 5.98728 5.91855 5.94635 5.89428C5.9085 5.87188 5.8026 5.78841 5.77141 5.75645C5.742 5.72616 5.65836 5.61487 5.63819 5.57886C5.61951 5.54551 5.56119 5.4062 5.55543 5.36959C5.54659 5.33467 5.54043 5.29984 5.53596 5.26492C5.53477 5.26196 5.53358 5.2591 5.53239 5.25614Z" fill="#EF2C7E"/>
</svg>
