<svg width="156" height="31" viewBox="0 0 156 31" fill="none" xmlns="http://www.w3.org/2000/svg">
<path d="M3.23042 25.5767C2.35961 26.2563 1.10281 26.1012 0.423272 25.2304C-0.256269 24.3596 -0.101221 23.1028 0.769582 22.4233L3.23042 25.5767ZM155.927 23.4642C156.223 24.5283 155.6 25.6309 154.536 25.9269L137.194 30.7495C136.13 31.0455 135.027 30.4227 134.731 29.3585C134.435 28.2943 135.058 27.1917 136.122 26.8958L151.537 22.609L147.25 7.19393C146.955 6.12975 147.577 5.02714 148.642 4.7312C149.706 4.43526 150.808 5.05805 151.104 6.12223L155.927 23.4642ZM0.769582 22.4233C1.79274 21.6248 2.89906 20.8146 4.08517 19.9993L6.35097 23.2957C5.22719 24.0681 4.18621 24.8309 3.23042 25.5767L0.769582 22.4233ZM11.0812 15.6794C13.3303 14.4263 15.7599 13.1872 18.3595 11.9876L20.0355 15.6195C17.5261 16.7775 15.1869 17.9708 13.0282 19.1736L11.0812 15.6794ZM25.8787 8.82681C28.3327 7.89052 30.9024 6.99875 33.5812 6.16702L34.7673 9.98713C32.1698 10.7936 29.6802 11.6577 27.3046 12.564L25.8787 8.82681ZM41.4321 3.9906C44.0076 3.35999 46.6659 2.78909 49.4024 2.28909L50.1214 6.22394C47.4638 6.70951 44.883 7.26379 42.3834 7.87583L41.4321 3.9906ZM57.4332 1.06268C60.0737 0.737574 62.7762 0.48093 65.5374 0.301359L65.797 4.29293C63.1135 4.46745 60.4873 4.71685 57.922 5.0327L57.4332 1.06268ZM73.6646 0.00476074C76.3289 -0.0168972 79.0407 0.0349731 81.797 0.167246L81.6053 4.16265C78.9244 4.034 76.2875 3.98357 73.6972 4.00463L73.6646 0.00476074ZM89.9002 0.781132C92.5562 1.056 95.2487 1.40698 97.9754 1.8397L97.3485 5.79026C94.6937 5.36896 92.073 5.02735 89.4884 4.75988L89.9002 0.781132ZM105.949 3.32283C108.554 3.87873 111.187 4.51055 113.846 5.22282L112.811 9.08658C110.218 8.39212 107.652 7.77636 105.114 7.23477L105.949 3.32283ZM121.644 7.52372C124.179 8.34068 126.735 9.23202 129.31 10.2014L127.901 13.9449C125.386 12.9982 122.891 12.1281 120.417 11.3309L121.644 7.52372ZM136.824 13.2322C139.266 14.283 141.723 15.4052 144.194 16.6017L142.451 20.2019C140.033 19.0311 137.63 17.9336 135.243 16.9063L136.824 13.2322ZM151.41 20.2885C152.598 20.9276 153.79 21.5842 154.984 22.2586L153.016 25.7414C151.846 25.0805 150.679 24.4372 149.515 23.8113L151.41 20.2885Z" fill="#DDDDDD"/>
</svg>
