<svg width="156" height="37" viewBox="0 0 156 37" fill="none" xmlns="http://www.w3.org/2000/svg">
<path d="M3.45745 3.63038C2.70103 2.82546 1.43531 2.78613 0.630384 3.54255C-0.174542 4.29897 -0.213865 5.56469 0.542552 6.36962L3.45745 3.63038ZM155.983 5.25744C156.126 4.16206 155.353 3.15882 154.257 3.01664L136.407 0.699695C135.312 0.557516 134.309 1.33024 134.166 2.42562C134.024 3.521 134.797 4.52424 135.892 4.66642L151.759 6.72592L149.7 22.5928C149.558 23.6882 150.33 24.6914 151.426 24.8336C152.521 24.9758 153.524 24.2031 153.666 23.1077L155.983 5.25744ZM0.542552 6.36962C1.47849 7.36557 2.48522 8.37611 3.56023 9.39392L6.31032 6.48927C5.28961 5.52287 4.33801 4.56741 3.45745 3.63038L0.542552 6.36962ZM10.0628 14.9558C12.2118 16.6239 14.5345 18.2787 17.0212 19.8879L19.1944 16.5298C16.8037 14.9827 14.5742 13.3941 12.5155 11.796L10.0628 14.9558ZM24.3476 24.2179C26.7805 25.527 29.3327 26.7789 31.9977 27.9518L33.609 24.2907C31.0426 23.1612 28.5851 21.9558 26.2431 20.6955L24.3476 24.2179ZM39.9167 31.0702C42.5405 31.9853 45.2534 32.8175 48.0505 33.5499L49.0637 29.6803C46.3717 28.9755 43.7602 28.1745 41.2341 27.2933L39.9167 31.0702ZM56.3626 35.3738C59.1102 35.8618 61.9263 36.2497 64.8069 36.5241L65.1862 32.5421C62.4149 32.2782 59.7057 31.905 57.0622 31.4354L56.3626 35.3738ZM73.2978 36.9889C76.0839 37.0292 78.9218 36.9606 81.8082 36.7723L81.5478 32.7808C78.7685 32.9621 76.0368 33.0281 73.3557 32.9893L73.2978 36.9889ZM90.2647 35.8882C93.018 35.4923 95.8097 34.9852 98.637 34.3589L97.7718 30.4536C95.0424 31.0582 92.3494 31.5473 89.6952 31.929L90.2647 35.8882ZM106.844 32.2273C109.501 31.4354 112.186 30.5363 114.896 29.5236L113.496 25.7766C110.87 26.7578 108.271 27.6281 105.702 28.3939L106.844 32.2273ZM122.756 26.2942C125.272 25.1663 127.807 23.939 130.361 22.6074L128.511 19.0608C126.027 20.3563 123.563 21.5491 121.12 22.6441L122.756 26.2942ZM137.743 18.4915C140.114 17.084 142.498 15.5852 144.895 13.9913L142.68 10.6605C140.339 12.2174 138.012 13.6799 135.701 15.052L137.743 18.4915ZM151.813 9.14915C152.946 8.31599 154.082 7.46123 155.22 6.58449L152.78 3.41551C151.665 4.27421 150.553 5.11101 149.444 5.92631L151.813 9.14915Z" fill="#DDDDDD"/>
</svg>
