<svg width="48" height="31" viewBox="0 0 48 31" fill="none" xmlns="http://www.w3.org/2000/svg">
<path d="M47.1411 4.76687L32.4379 0.0740964C32.1853 -0.0246988 31.9326 -0.0246988 31.6295 0.0740964L16.9263 4.76687C16.4211 4.91506 16.0674 5.40904 16.0674 5.95241V24.8223C16.0674 25.3657 16.4211 25.8102 16.9263 26.0078L31.6295 30.7006C31.7811 30.75 31.8821 30.75 32.0337 30.75C32.1853 30.75 32.2863 30.75 32.4379 30.7006L47.1411 25.9584C47.6463 25.8102 48 25.3163 48 24.7729V5.95241C48 5.40904 47.6463 4.96446 47.1411 4.76687ZM30.7705 27.8355L18.5937 23.9331V7.63193L23.4442 9.16325V18.4006C23.4442 19.0922 24 19.6355 24.7074 19.6355C25.4147 19.6355 25.9705 19.0922 25.9705 18.4006V10.003L30.8211 11.5343V27.8355H30.7705ZM32.0337 9.36084L28.5979 8.27409L31.0232 7.43434C31.68 7.18735 32.0337 6.49578 31.7811 5.85361C31.5284 5.21145 30.8211 4.91506 30.1642 5.11265L24.7579 7.03916L21.3726 5.95241L32.0337 2.54398L42.6947 5.95241L32.0337 9.36084ZM45.4737 23.9331L40.6232 25.4645V20.1295C40.6232 19.438 40.0674 18.8946 39.36 18.8946C38.6526 18.8946 38.1474 19.438 38.1474 20.1295V26.3042L33.2968 27.8355V11.5343L45.4737 7.63193V23.9331Z" fill="#F36717"/>
<path d="M10.2063 7.28614H1.26316C0.555789 7.28614 0 7.82952 0 8.52108C0 9.21265 0.555789 9.75602 1.26316 9.75602H10.2063C10.9137 9.75602 11.4695 9.21265 11.4695 8.52108C11.4189 7.82952 10.8632 7.28614 10.2063 7.28614Z" fill="#F36717"/>
<path d="M10.2063 14.1524H1.26316C0.555789 14.1524 0 14.6958 0 15.3873C0 16.0789 0.555789 16.6223 1.26316 16.6223H10.2063C10.9137 16.6223 11.4695 16.0789 11.4695 15.3873C11.4695 14.6958 10.8632 14.1524 10.2063 14.1524Z" fill="#F36717"/>
<path d="M10.2063 21.0187H1.26316C0.555789 21.0187 0 21.562 0 22.2536C0 22.9452 0.555789 23.4886 1.26316 23.4886H10.2063C10.9137 23.4886 11.4695 22.9452 11.4695 22.2536C11.4695 21.562 10.8632 21.0187 10.2063 21.0187Z" fill="#F36717"/>
</svg>
