<svg width="24" height="24" viewBox="0 0 24 24" fill="none" xmlns="http://www.w3.org/2000/svg">
<path fill-rule="evenodd" clip-rule="evenodd" d="M6.61842 2.61842C7.17631 2.06053 8.08083 2.06053 8.63872 2.61842L16.7051 10.6848C17.5419 11.5216 17.5419 12.8784 16.7051 13.7152L8.63872 21.7816C8.08083 22.3395 7.17631 22.3395 6.61842 21.7816C6.06053 21.2237 6.06053 20.3192 6.61842 19.7613L14.1797 12.2L6.61842 4.63872C6.06053 4.08083 6.06053 3.17631 6.61842 2.61842Z" fill="black"/>
<path fill-rule="evenodd" clip-rule="evenodd" d="M6.477 21.923C5.841 21.287 5.841 20.2559 6.477 19.6199L13.8969 12.2L6.477 4.78015C5.841 4.14415 5.841 3.11299 6.477 2.477C7.11299 1.841 8.14415 1.841 8.78015 2.477L16.8465 10.5433C17.7614 11.4583 17.7614 12.9417 16.8465 13.8566L8.78015 21.923C8.14415 22.559 7.11299 22.559 6.477 21.923ZM14.1797 12.2L6.61842 19.7613C6.06053 20.3192 6.06053 21.2237 6.61842 21.7816C7.17631 22.3395 8.08083 22.3395 8.63872 21.7816L16.7051 13.7152C17.5419 12.8784 17.5419 11.5216 16.7051 10.6848L8.63872 2.61842C8.08083 2.06053 7.17631 2.06053 6.61842 2.61842C6.06053 3.17631 6.06053 4.08083 6.61842 4.63872L14.1797 12.2Z" fill="black"/>
</svg>
