<svg width="24" height="24" viewBox="0 0 24 24" fill="none" xmlns="http://www.w3.org/2000/svg">
<path d="M18.1772 6.00073C17.7171 6.01414 17.2803 6.20608 16.9592 6.53592C14.1949 9.30621 12.0638 11.6291 9.53116 14.2224L6.95672 12.0447C6.78038 11.8861 6.574 11.7645 6.34981 11.6872C6.12561 11.6098 5.88817 11.5782 5.65155 11.5943C5.41493 11.6104 5.18395 11.6739 4.9723 11.7809C4.76065 11.8879 4.57264 12.0363 4.41942 12.2174C4.2662 12.3984 4.15087 12.6083 4.08029 12.8347C4.0097 13.0612 3.98529 13.2995 4.00851 13.5355C4.03172 13.7715 4.10208 14.0005 4.21542 14.2088C4.32876 14.4172 4.48277 14.6006 4.66832 14.7483L8.50692 17.9964C8.84654 18.2837 9.28182 18.4328 9.7263 18.414C10.1708 18.3952 10.5919 18.2099 10.906 17.8949C14.0923 14.7018 16.3561 12.1563 19.4691 9.03657C19.7233 8.78709 19.8965 8.46678 19.966 8.11741C20.0354 7.76804 19.998 7.40585 19.8585 7.07809C19.7191 6.75032 19.484 6.47219 19.1841 6.28001C18.8842 6.08782 18.5333 5.9905 18.1772 6.00073Z" fill="black"/>
</svg>
