<svg width="24" height="24" viewBox="0 0 24 24" fill="none" xmlns="http://www.w3.org/2000/svg">
<path d="M21.2334 5.38485C22.0073 4.61099 22.0073 3.35425 21.2334 2.58039C20.4596 1.80654 19.2028 1.80654 18.429 2.58039L11.91 9.10554L5.38485 2.58658C4.61099 1.81273 3.35425 1.81273 2.58039 2.58658C1.80654 3.36044 1.80654 4.61718 2.58039 5.39104L9.10554 11.91L2.58658 18.4352C1.81273 19.209 1.81273 20.4658 2.58658 21.2396C3.36044 22.0135 4.61718 22.0135 5.39104 21.2396L11.91 14.7145L18.4352 21.2334C19.209 22.0073 20.4658 22.0073 21.2396 21.2334C22.0135 20.4596 22.0135 19.2028 21.2396 18.429L14.7145 11.91L21.2334 5.38485Z" fill="black"/>
</svg>
