<svg width="24" height="24" viewBox="0 0 24 24" fill="none" xmlns="http://www.w3.org/2000/svg">
<path d="M12 0C9.62663 0 7.30655 0.703788 5.33316 2.02236C3.35977 3.34094 1.8217 5.21508 0.913451 7.4078C0.00519946 9.60051 -0.232441 12.0133 0.230582 14.3411C0.693605 16.6689 1.83649 18.807 3.51472 20.4853C5.19295 22.1635 7.33115 23.3064 9.65892 23.7694C11.9867 24.2324 14.3995 23.9948 16.5922 23.0866C18.7849 22.1783 20.6591 20.6402 21.9776 18.6668C23.2962 16.6935 24 14.3734 24 12C24 10.4241 23.6896 8.8637 23.0866 7.4078C22.4835 5.95189 21.5996 4.62902 20.4853 3.51472C19.371 2.40042 18.0481 1.5165 16.5922 0.913446C15.1363 0.310389 13.5759 0 12 0ZM12 21.6C10.1013 21.6 8.24524 21.037 6.66653 19.9821C5.08782 18.9272 3.85736 17.4279 3.13076 15.6738C2.40416 13.9196 2.21405 11.9893 2.58447 10.1271C2.95488 8.26491 3.8692 6.55436 5.21178 5.21177C6.55436 3.86919 8.26492 2.95488 10.1271 2.58446C11.9894 2.21404 13.9196 2.40416 15.6738 3.13076C17.4279 3.85736 18.9272 5.08781 19.9821 6.66652C21.037 8.24524 21.6 10.1013 21.6 12C21.6 14.5461 20.5886 16.9879 18.7882 18.7882C16.9879 20.5886 14.5461 21.6 12 21.6Z" fill="#111111"/>
<path d="M12 9.6C11.6817 9.6 11.3765 9.72643 11.1515 9.95147C10.9264 10.1765 10.8 10.4817 10.8 10.8V16.8C10.8 17.1183 10.9264 17.4235 11.1515 17.6485C11.3765 17.8736 11.6817 18 12 18C12.3183 18 12.6235 17.8736 12.8485 17.6485C13.0736 17.4235 13.2 17.1183 13.2 16.8V10.8C13.2 10.4817 13.0736 10.1765 12.8485 9.95147C12.6235 9.72643 12.3183 9.6 12 9.6Z" fill="#111111"/>
<path d="M11.148 6.348C10.9287 6.57796 10.8044 6.88228 10.8 7.2C10.7991 7.35793 10.8294 7.51448 10.8891 7.66069C10.9488 7.80689 11.0368 7.93987 11.148 8.052C11.2646 8.158 11.3986 8.24323 11.544 8.304C11.6876 8.36749 11.843 8.40028 12 8.40028C12.157 8.40028 12.3124 8.36749 12.456 8.304C12.6014 8.24323 12.7354 8.158 12.852 8.052C12.9576 7.93507 13.0428 7.80121 13.104 7.656C13.1712 7.51358 13.2041 7.35741 13.2 7.2C13.2014 6.96165 13.1318 6.72829 13 6.52966C12.8682 6.33104 12.6803 6.17615 12.4602 6.08475C12.24 5.99335 11.9977 5.96958 11.764 6.01646C11.5303 6.06335 11.3158 6.17876 11.148 6.348Z" fill="#111111"/>
</svg>
