<svg width="24" height="24" viewBox="0 0 24 24" fill="none" xmlns="http://www.w3.org/2000/svg">
<path d="M1.92385 5.8477H17.2665C18.3246 5.8477 19.1904 4.98196 19.1904 3.92385C19.1904 2.86573 18.3246 2 17.2665 2H1.92385C0.865731 2 0 2.86573 0 3.92385C0 4.98196 0.865731 5.8477 1.92385 5.8477Z" fill="black"/>
<path d="M17.2184 17.9679H1.92385C0.865731 17.9679 0 18.8337 0 19.8918C0 20.9499 0.865731 21.8156 1.92385 21.8156H17.2665C18.3246 21.8156 19.1904 20.9499 19.1904 19.8918C19.1904 18.8337 18.2766 17.9679 17.2184 17.9679Z" fill="black"/>
<path d="M22.0281 9.98397H1.92385C0.865731 9.98397 0 10.8497 0 11.9078C0 12.9659 0.865731 13.8317 1.92385 13.8317H22.0762C23.1343 13.8317 24 12.9659 24 11.9078C24 10.8497 23.0862 9.98397 22.0281 9.98397Z" fill="black"/>
</svg>
