<svg width="131" height="91" viewBox="0 0 131 91" fill="none" xmlns="http://www.w3.org/2000/svg">
<g filter="url(#filter0_d_35_858)">
<path d="M58.8707 25.1905C59.5112 25.3446 60.0828 25.8757 60.4387 26.648C60.827 27.4893 60.8661 28.4058 60.541 29.0397C60.4367 29.2423 60.2745 29.5747 60.2664 29.5905L60.1339 29.834C59.2988 31.3686 57.9011 33.9367 55.9856 33.9051C55.5219 33.8941 55.1378 33.6984 54.8745 33.3398C53.9645 32.0999 54.7637 29.328 54.7984 29.2103C55.0008 28.5222 56.1245 25.0899 58.3797 25.1273C58.5416 25.1299 58.7068 25.1512 58.8707 25.1905ZM55.6902 38.5985C57.3412 38.6256 59.0847 38.021 60.4733 36.9385C63.0738 34.9121 64.7525 31.5453 66.122 28.5483C70.0029 20.0536 69.819 14.0703 65.5437 9.71867C63.6644 7.80549 61.1877 6.64075 58.9186 6.60335C57.8156 6.58497 56.7699 6.82456 55.8107 7.316C53.6099 8.44301 51.4603 11.2065 52.0283 15.582C52.1636 16.6226 53.3405 17.2853 54.3534 17.3021C54.5523 17.3053 54.7407 17.284 54.9133 17.2388C56.3975 16.8516 56.7651 15.4727 56.6145 14.3112C56.5128 13.525 56.7664 12.705 57.2936 12.1178C57.7563 11.6022 58.3732 11.3239 59.0303 11.3352C59.1404 11.3371 59.2531 11.3471 59.3642 11.3652C61.245 11.6728 62.8532 13.4983 63.613 15.1709C64.4821 17.0857 64.4967 19.4768 63.6557 22.279L63.4798 22.8646L63.0466 22.4318C61.7865 21.1732 60.168 20.4651 58.4882 20.4374C57.5844 20.4222 56.6618 20.5992 55.7453 20.9627C52.8842 22.0977 50.4353 25.601 49.7896 29.4818C49.2475 32.7436 50.0668 35.5767 52.0386 37.2555C53.0429 38.1113 54.3058 38.5753 55.6902 38.5985ZM60.1961 4.95813C60.2314 4.95878 60.267 4.95943 60.3023 4.96007C60.8966 4.96975 61.4283 4.73112 61.8642 4.3461C62.3014 3.95978 62.4973 3.37677 62.5323 2.81246C62.566 2.26878 62.2897 1.64255 61.9157 1.25753C61.5245 0.854773 60.9377 0.60165 60.3755 0.591976C60.3399 0.591331 60.3046 0.590675 60.269 0.590353C59.6747 0.580356 59.143 0.818983 58.7074 1.20433C58.2703 1.59096 58.074 2.17365 58.0394 2.73828C58.0057 3.28163 58.2819 3.90755 58.656 4.29289C59.0468 4.69565 59.6336 4.94911 60.1961 4.95813ZM70.9524 10.5706C70.7439 10.3559 70.4307 10.2207 70.1309 10.2156C70.1117 10.2153 70.093 10.2149 70.0742 10.2146C69.7571 10.2091 69.4734 10.3365 69.2413 10.5422C69.0081 10.748 68.9035 11.0588 68.8847 11.36C68.8669 11.6499 69.0142 11.9837 69.2137 12.1894C69.4223 12.4042 69.7351 12.5393 70.0353 12.5441C70.0541 12.5444 70.0729 12.5447 70.092 12.5451C70.4087 12.5502 70.6924 12.4232 70.9249 12.2178C71.1581 12.0114 71.2627 11.7005 71.2811 11.3997C71.2989 11.1095 71.1519 10.7757 70.9524 10.5706ZM67.1078 9.15177C67.3688 9.42006 67.76 9.58936 68.1347 9.59516C68.1583 9.59581 68.182 9.59613 68.206 9.59645C68.602 9.60322 68.9563 9.44393 69.2468 9.18725C69.5382 8.9296 69.6691 8.54135 69.692 8.16503C69.7147 7.80258 69.5304 7.38499 69.2811 7.12831C69.0204 6.8597 68.6292 6.69074 68.2545 6.68461C68.2309 6.68429 68.2072 6.68397 68.1833 6.68332C67.7872 6.67687 67.4329 6.83616 67.1425 7.09252C66.851 7.35049 66.7202 7.73874 66.6969 8.11506C66.6745 8.4775 66.8585 8.89509 67.1078 9.15177ZM65.1334 6.79231C65.1628 6.79263 65.1923 6.79327 65.2221 6.79391C65.7173 6.80198 66.1603 6.60303 66.5233 6.28218C66.8876 5.96003 67.0511 5.4744 67.0803 5.00392C67.1081 4.55118 66.8782 4.02911 66.5664 3.70826C66.2402 3.37257 65.7516 3.16136 65.283 3.15394C65.2532 3.1533 65.2237 3.15298 65.1943 3.15234C64.6991 3.14395 64.2558 3.34292 63.8927 3.66409C63.5284 3.98623 63.3649 4.47154 63.3361 4.94201C63.3082 5.39507 63.5381 5.91681 63.8497 6.23766C64.1758 6.57335 64.6648 6.78425 65.1334 6.79231ZM51.1724 3.41901C51.1115 3.1762 51.1154 2.93403 51.1847 2.69347C51.2109 2.52063 51.2154 2.4026 51.2611 2.25685C51.3223 2.06176 51.4732 1.74348 51.5681 1.56193C51.584 1.53098 51.6005 1.50229 51.6196 1.47294C51.731 1.30075 51.9496 1.03729 52.0888 0.886382C52.2841 0.674845 52.5513 0.511029 52.7867 0.350442C53.1047 0.156319 53.4464 0.0537753 53.8113 0.0434565C54.1773 -0.0316777 54.5413 -0.00942514 54.9036 0.110531C55.2592 0.200821 55.5672 0.368821 55.8279 0.614539C56.1232 0.811887 56.3544 1.07115 56.5215 1.39233C56.847 2.03113 57.0024 2.80149 56.7625 3.50027C56.7586 3.50963 56.754 3.51929 56.7498 3.52896C56.7317 3.64215 56.7077 3.75534 56.6754 3.86853C56.6524 3.98752 56.4471 4.43638 56.3826 4.54312C56.3133 4.65888 56.0287 5.01327 55.9292 5.10904C55.8243 5.21029 55.47 5.47117 55.3444 5.54018C55.2084 5.61499 54.8058 5.77493 54.6575 5.81169C54.5066 5.84877 54.051 5.90134 53.8981 5.89747C53.7469 5.8936 53.2857 5.82427 53.1432 5.78138C53.0014 5.73881 52.5937 5.55856 52.4697 5.48214C52.1507 5.28544 51.9162 5.03906 51.6963 4.74627C51.5296 4.5731 51.4153 4.37028 51.354 4.13779C51.2883 4.03008 51.2433 3.91624 51.2183 3.79629C51.1915 3.67246 51.1759 3.54671 51.1724 3.41901Z" fill="#0B8ED8"/>
<path d="M44.6849 67.2295L44.9003 68.0076C45.3731 69.6947 46.1649 72.5185 44.7617 73.8061C44.477 74.0673 44.1512 74.1966 43.7927 74.1908C42.1852 74.1641 40.693 71.3725 40.6301 71.2538C40.2506 70.5351 38.4724 66.8802 40.7506 65.5452C41.055 65.3669 41.4158 65.2799 41.8228 65.2866C42.9323 65.305 44.3465 66.0876 44.6849 67.2295ZM44.0502 78.6976C46.7468 78.7263 49.0393 77.2326 49.8897 74.8928C50.5402 73.1028 50.3119 71.1532 49.9713 69.3255C49.9269 69.1288 49.902 69.0098 49.8725 68.8699L49.8223 68.6312C49.0221 64.8868 48.8676 60.9556 48.8216 57.6042C48.8116 56.8632 48.8964 54.8107 48.9097 54.6718C48.9512 54.2345 48.9295 53.8446 48.8783 53.319C48.798 52.4958 48.6659 51.6093 48.2445 50.7051C47.1046 48.2605 44.6966 46.7143 41.9595 46.6689C41.0437 46.6537 40.1347 46.8062 39.2567 47.1226C35.6356 48.4272 32.8214 51.7564 31.9131 55.8104C31.7019 56.7526 32.027 57.4175 32.337 57.8093C32.8256 58.4269 33.6291 58.819 34.4335 58.8322C34.9312 58.8403 36.1249 58.6971 36.4627 57.1908C36.9746 54.9055 38.8911 51.2981 41.8536 51.3475C41.8944 51.3481 41.9359 51.3497 41.977 51.3514C42.5962 51.383 43.091 51.6009 43.4475 51.9995C44.1694 52.8063 44.1493 54.1213 44.0742 55.2906C43.9738 56.8423 43.967 58.5291 44.0538 60.3039L44.0771 60.7847L43.6062 60.6764C43.1315 60.567 42.6347 60.5077 42.1292 60.4993C41.83 60.4945 41.5213 60.5071 41.2114 60.5377C39.0925 60.7447 37.2917 61.9104 36.1404 63.8201C34.8376 65.9806 34.6109 68.7286 35.553 71.0013C38.2554 78.0565 42.7102 78.6753 44.0107 78.6969L44.0502 78.6976ZM40.5307 44.9246C40.5663 44.9253 40.6016 44.9256 40.6369 44.9263C41.1994 44.9356 41.7943 44.7015 42.1988 44.3123C42.5855 43.9398 42.8821 43.323 42.8669 42.7783C42.851 42.213 42.6742 41.6242 42.2503 41.2237C41.8277 40.8245 41.3044 40.5682 40.7101 40.5585C40.6745 40.5578 40.6392 40.5572 40.6036 40.5565C40.0411 40.5472 39.4465 40.781 39.042 41.1705C38.6554 41.543 38.3584 42.1595 38.374 42.7042C38.3898 43.2694 38.5663 43.8583 38.9905 44.2591C39.4128 44.6586 39.9365 44.9146 40.5307 44.9246ZM31.4105 50.2076C31.1851 49.9944 30.9059 49.858 30.5889 49.8525C30.5701 49.8522 30.5513 49.8519 30.5322 49.8516C30.2323 49.8464 29.915 49.9715 29.6993 50.1792C29.493 50.3778 29.3346 50.7064 29.3431 50.9973C29.3515 51.2985 29.4457 51.6125 29.6718 51.8263C29.8972 52.0392 30.1763 52.1759 30.4933 52.1814C30.5121 52.1817 30.5312 52.182 30.55 52.1823C30.8502 52.1872 31.1672 52.0624 31.3829 51.8547C31.5892 51.6561 31.7476 51.3272 31.7391 51.037C31.7307 50.7351 31.6365 50.4214 31.4105 50.2076ZM32.4769 49.2966C32.5005 49.2969 32.5241 49.2976 32.5478 49.2979C32.9228 49.3043 33.3195 49.1483 33.5889 48.8887C33.8467 48.6401 34.0446 48.2293 34.0345 47.8662C34.0235 47.4895 33.906 47.0968 33.6232 46.8294C33.3415 46.5634 32.9927 46.3925 32.5967 46.3861C32.5727 46.3857 32.5491 46.3851 32.5254 46.3848C32.1507 46.3783 31.754 46.5344 31.4846 46.7943C31.2268 47.0426 31.0287 47.4534 31.039 47.8165C31.0497 48.1931 31.1676 48.5859 31.4503 48.8532C31.7317 49.1193 32.0808 49.2902 32.4769 49.2966ZM35.6213 46.5953C35.6508 46.5957 35.6803 46.5963 35.7097 46.5966C36.1783 46.6047 36.6741 46.4096 37.0112 46.0852C37.3335 45.7747 37.5809 45.261 37.5679 44.8069C37.5546 44.3362 37.4076 43.8454 37.054 43.5113C36.702 43.1788 36.2658 42.9654 35.7706 42.957C35.7411 42.9563 35.7114 42.956 35.6819 42.9554C35.2133 42.9476 34.7175 43.1424 34.3807 43.4671C34.0582 43.7773 33.8111 44.2916 33.8237 44.745C33.837 45.2161 33.9843 45.7066 34.3376 46.041C34.69 46.3738 35.1259 46.5873 35.6213 46.5953ZM44.1172 43.5829C43.9006 42.8764 44.0819 42.1118 44.4288 41.484C44.6065 41.1683 44.8459 40.9171 45.1477 40.7294C45.4165 40.4927 45.7299 40.3347 46.0881 40.2563C46.4547 40.1486 46.8193 40.1383 47.1824 40.2254C47.547 40.2483 47.8848 40.3618 48.1963 40.5665C48.4262 40.7349 48.6876 40.9074 48.8757 41.125C49.0098 41.2805 49.2196 41.5507 49.3252 41.7268C49.3433 41.7564 49.3585 41.7858 49.3738 41.8174C49.4625 42.0018 49.6024 42.3253 49.6571 42.5223C49.6979 42.6697 49.6986 42.7874 49.719 42.9608C49.7805 43.204 49.7763 43.4458 49.707 43.6867C49.6992 43.8141 49.6798 43.9392 49.6487 44.0621C49.6199 44.1814 49.5707 44.2936 49.5017 44.3994C49.4327 44.6296 49.3119 44.8282 49.139 44.9956C48.9097 45.2813 48.6672 45.5196 48.3414 45.7057C48.2154 45.7776 47.8015 45.9446 47.6584 45.9823C47.5146 46.0204 47.0515 46.0746 46.9003 46.0733C46.7471 46.0723 46.2937 46.0046 46.1441 45.9623C45.9971 45.9214 45.6001 45.7479 45.4667 45.6686C45.3433 45.5954 44.9981 45.3226 44.8964 45.2181C44.8005 45.1191 44.5279 44.7554 44.4621 44.6377C44.4012 44.5287 44.2111 44.0733 44.1924 43.9537C44.1635 43.8396 44.1435 43.7257 44.1289 43.6116C44.125 43.6019 44.1211 43.5925 44.1172 43.5829Z" fill="#EF2C7E"/>
<path d="M10.1725 78.8759C10.3992 80.5224 9.54714 81.8203 8.10833 82.0525C6.65332 82.2876 5.35343 81.2392 5.10602 79.5756C4.20931 73.5462 0.92235 53.1617 0.0470146 47.1293C-0.165747 45.6624 0.353692 44.5467 1.40099 44.0682C2.41719 43.6041 3.62997 43.7599 4.32525 44.627C4.7213 45.121 4.98879 45.8017 5.08756 46.4334C5.56392 49.4791 9.76249 75.8915 10.1725 78.8759Z" fill="#8B359F"/>
<path d="M96.0878 36.3861C95.8942 38.0371 94.7439 39.0819 93.2924 38.949C91.8245 38.8149 90.829 37.4767 91.0065 35.8041C91.6499 29.743 93.579 9.18658 94.2439 3.12781C94.4055 1.65447 95.1885 0.703201 96.3226 0.500371C97.4227 0.303668 98.5581 0.756086 99.0137 1.76862C99.2737 2.34551 99.3622 3.07106 99.2993 3.70728C98.9969 6.77456 96.4392 33.3943 96.0878 36.3861Z" fill="#66C430"/>
<path d="M56.8279 74.2592C56.8182 74.2595 56.8085 74.2598 56.7987 74.2605C56.1812 74.2808 55.4503 73.9619 54.9804 73.4662C54.4448 72.901 54.3343 72.2834 54.2608 71.6485C53.9166 68.6731 53.6313 65.6761 53.4133 62.7404L53.3346 61.7002C53.1675 59.519 52.9943 57.264 53.0399 55.0461C53.0681 53.6476 53.3784 52.3587 54.016 50.9902C54.5137 49.9209 55.2829 49.0254 56.4367 48.1728C58.0054 47.0135 60.1476 46.4431 62.3124 46.6056C65.1146 46.8168 67.6878 48.0957 69.1953 50.026C69.6603 50.6213 69.8766 51.1833 69.8967 51.8473C69.9162 52.4803 69.6457 53.1349 69.1357 53.6905C68.7121 54.1523 67.975 54.4544 67.3024 54.4473C66.7075 54.4399 65.8902 54.1561 65.4789 53.6295L65.3694 53.4867C65.2399 53.3171 65.09 53.1204 64.9371 52.9698C64.895 52.9491 64.8568 52.924 64.8225 52.9011L64.7302 52.8389C64.6768 52.8024 64.6233 52.7663 64.5683 52.7321C64.3983 52.626 64.224 52.527 64.0488 52.4319L63.9416 52.3726C63.8626 52.3287 63.782 52.2839 63.702 52.2433C63.6865 52.2381 63.67 52.2326 63.6534 52.2262L63.5469 52.1849C63.4821 52.1601 63.4174 52.1349 63.3519 52.112C63.0709 52.0121 62.7807 51.9324 62.4724 51.8702C61.9711 51.8176 61.4772 51.8076 60.9983 51.8466C60.8351 51.874 60.6806 51.9063 60.5313 51.9437C60.4021 51.9759 60.2742 52.0124 60.1476 52.053C60.1142 52.0637 60.0417 52.0907 59.9746 52.1156C59.9675 52.1185 59.9604 52.1211 59.9529 52.124C59.8992 52.1488 59.848 52.1726 59.8234 52.1852C59.6945 52.2517 59.5689 52.3229 59.4461 52.3993C59.4179 52.4168 59.3548 52.4613 59.2942 52.5038C59.2722 52.519 59.2486 52.5354 59.2237 52.5515C59.1663 52.5999 59.1084 52.6486 59.0844 52.6709C59.0125 52.737 58.9458 52.8079 58.8791 52.8785C58.848 52.9111 58.8169 52.9437 58.7855 52.9759C58.6845 53.1368 58.5925 53.3051 58.4992 53.4957C58.4791 53.5596 58.4523 53.6295 58.417 53.6937C58.3868 53.7753 58.3577 53.8569 58.3312 53.9401C58.2693 54.1332 58.2175 54.3293 58.176 54.526C58.0834 55.5437 58.1475 56.6075 58.2091 57.6397C58.2227 57.8606 58.2356 58.0802 58.2473 58.2979C58.326 59.7734 58.4215 61.2716 58.5316 62.7521C58.7486 65.6774 59.0329 68.666 59.3765 71.6337C59.4733 72.4692 58.8778 73.2199 58.6174 73.504C58.1974 73.9619 57.5627 74.2292 56.8279 74.2592Z" fill="#F03F53"/>
<path d="M77.0665 39.375C76.4794 39.375 75.8026 39.0693 75.3576 38.5989C74.8307 38.0413 74.7158 37.4267 74.6364 36.7934C74.2637 33.8219 73.9486 30.8291 73.6992 27.8976L73.6092 26.8586C73.4188 24.68 73.2219 22.4273 73.2374 20.2097C73.2471 18.8125 73.5312 17.5207 74.1319 16.1444C74.6014 15.069 75.3366 14.1635 76.4454 13.2951C77.9558 12.113 80.0312 11.5119 82.1388 11.6477C84.8652 11.8221 87.382 13.0684 88.872 14.981C89.3306 15.5698 89.5472 16.1276 89.5754 16.79C89.602 17.4204 89.3484 18.0773 88.861 18.6387C88.4543 19.1082 87.7389 19.4235 87.0812 19.4235C86.5002 19.4235 85.6984 19.1495 85.2904 18.6258L85.1832 18.4855C85.0556 18.3175 84.9073 18.1227 84.7577 17.9747C84.7165 17.9541 84.6793 17.9296 84.6459 17.9073L84.5491 17.8419C84.4989 17.808 84.4487 17.7735 84.3969 17.7416C84.2311 17.6384 84.0611 17.5416 83.8898 17.4488L83.7868 17.392C83.7091 17.3488 83.6297 17.305 83.551 17.265C83.5361 17.2605 83.5209 17.255 83.505 17.2492L83.4017 17.2098C83.3389 17.1856 83.2754 17.1615 83.2116 17.1392C82.9374 17.0431 82.6553 16.967 82.3558 16.909C81.8719 16.8638 81.3956 16.8622 80.9331 16.9051C80.7751 16.9351 80.6258 16.9693 80.482 17.008C80.358 17.0422 80.2346 17.0799 80.1122 17.1221C80.0808 17.1331 80.0105 17.1615 79.9461 17.1869C79.9399 17.1895 79.9338 17.1921 79.9273 17.1947C79.8751 17.2202 79.8253 17.245 79.8013 17.2582C79.6779 17.3259 79.5571 17.3985 79.4393 17.4765C79.4127 17.4939 79.3531 17.5384 79.2951 17.581C79.2734 17.5971 79.2505 17.6139 79.2258 17.631C79.1708 17.68 79.1157 17.7293 79.0928 17.7516C79.0238 17.8186 78.9603 17.8902 78.8965 17.9615C78.867 17.9944 78.8372 18.0276 78.8071 18.0602C78.7113 18.222 78.6245 18.3913 78.5364 18.5819C78.5176 18.6483 78.492 18.7209 78.4567 18.7876C78.4289 18.8686 78.4023 18.9495 78.378 19.0318C78.3201 19.2259 78.2721 19.4235 78.2346 19.6212C78.1578 20.6402 78.2333 21.7037 78.3071 22.7352C78.3227 22.9558 78.3382 23.1751 78.3525 23.3931C78.4477 24.8667 78.5597 26.3636 78.6854 27.8434C78.9344 30.7688 79.2488 33.7532 79.62 36.7134C79.7242 37.5447 79.1569 38.3019 78.9082 38.5885C78.4998 39.0597 77.8732 39.338 77.1439 39.3731C77.1183 39.3744 77.0924 39.375 77.0665 39.375Z" fill="#19B3C6"/>
<path d="M19.0868 56.8932L19.0926 56.9019C19.0295 56.9448 18.9666 56.989 18.9051 57.0338C18.828 57.0906 18.7526 57.1492 18.6781 57.2089C18.5155 57.3401 18.3568 57.4811 18.2053 57.6284C18.1703 57.6626 18.137 57.6971 18.103 57.7316C18.0774 57.7658 18.0583 57.7916 18.0447 57.8084C17.8996 57.9867 17.7603 58.1744 17.6301 58.3672C17.5353 58.5084 17.4488 58.6535 17.362 58.7987L17.3134 58.8857C17.281 58.9521 17.2487 59.0186 17.2182 59.086C17.0281 59.5077 16.8639 59.9669 16.7308 60.4506L16.692 60.6032C16.679 60.6599 16.6645 60.7231 16.6596 60.7492C16.6107 61.0033 16.5676 61.2716 16.5323 61.5477C16.4248 62.3825 16.386 63.3077 16.4135 64.375C16.4225 64.5069 16.4336 64.6414 16.4465 64.7765C17.2924 64.346 17.988 63.9661 18.6204 63.5895C18.8099 63.477 18.9967 63.3609 19.1836 63.2441C19.2811 63.179 19.3776 63.1139 19.4738 63.0478C19.91 62.7472 20.3005 62.4544 20.6681 62.1516C20.9906 61.8849 21.2824 61.6031 21.591 61.3052L21.7027 61.1978C21.7743 61.1133 21.8433 61.0295 21.9103 60.9447C22.0557 60.7621 22.1904 60.5764 22.3116 60.3919C22.364 60.312 22.4136 60.2304 22.4625 60.1478L22.5191 60.0134C22.5936 59.8409 22.6645 59.678 22.7186 59.5052C22.7325 59.4613 22.7452 59.4165 22.7578 59.3713L22.7785 59.2607C22.7814 59.2191 22.784 59.1788 22.7882 59.1437C22.8096 58.9679 22.8206 58.777 22.8226 58.5413C22.7963 58.3104 22.7494 58.057 22.6846 57.8074C22.6273 57.6681 22.57 57.5417 22.5107 57.4285C22.4897 57.3885 22.4667 57.3485 22.4437 57.3089L22.4255 57.2776C22.3935 57.2453 22.3378 57.1876 22.2821 57.1296C22.2108 57.0557 22.1393 56.9809 22.0755 56.9055C22.0036 56.8532 21.9304 56.8032 21.8549 56.7565C21.8375 56.7458 21.8174 56.7349 21.797 56.7242L21.7976 56.7226L21.7682 56.7097C21.7332 56.6926 21.7034 56.6794 21.684 56.6707L21.683 56.6739C21.5871 56.6372 21.49 56.6062 21.3922 56.5772L21.3948 56.5675C21.3617 56.5569 21.3051 56.5411 21.2536 56.5317L21.2192 56.5262C21.1153 56.5117 21.0104 56.4998 20.9055 56.4914C20.7798 56.4814 20.6545 56.4779 20.5288 56.4772C20.2655 56.5069 19.9802 56.5591 19.6992 56.6327C19.6127 56.6672 19.51 56.7104 19.409 56.7575C19.3808 56.7707 19.3365 56.7891 19.2833 56.8103C19.2393 56.8284 19.1629 56.859 19.0868 56.8932ZM24.5179 79.4644C23.8818 79.5808 23.2287 79.6143 22.569 79.5624C21.1328 79.448 19.6988 78.9481 18.4216 78.1168C17.3497 77.4184 16.3607 76.4758 15.4828 75.3156C14.5122 74.0331 13.8085 72.8545 13.3309 71.7124C12.1851 68.9708 11.6165 66.1099 11.6404 63.2077C11.667 60.033 12.4772 57.3127 13.9837 55.3402C15.8711 52.8695 18.6635 51.5642 21.4524 51.845C23.0036 52.0024 24.3809 52.617 25.5464 53.6731C26.5153 54.5505 27.2203 55.8868 27.48 57.3389C27.7336 58.7541 27.582 60.2339 27.0535 61.5061C26.6442 62.4915 26.0422 63.3976 25.1594 64.3573C23.5962 66.056 21.6234 67.272 20.0793 68.142C19.3967 68.5264 18.6855 68.8798 17.9974 69.221L17.5608 69.4383C17.8393 70.1352 18.134 70.7385 18.4595 71.279C18.555 71.4376 18.6531 71.5969 18.7555 71.753L18.8005 71.8165C18.8721 71.9187 18.9449 72.0206 19.0191 72.1216C19.3225 72.534 19.6201 72.8958 19.9287 73.2276C20.0949 73.4063 20.2691 73.5756 20.4449 73.7449L20.5133 73.799C20.5716 73.8458 20.6299 73.8929 20.6898 73.938C20.8689 74.0741 21.0564 74.204 21.2471 74.324C21.3488 74.3872 21.4521 74.4485 21.5573 74.5075L21.5946 74.5223C21.7607 74.5929 21.9259 74.6626 22.0978 74.721C22.2118 74.7593 22.3268 74.7951 22.443 74.827C22.5198 74.848 22.5978 74.868 22.6762 74.8864L22.6742 74.8951C22.7504 74.9006 22.8287 74.9025 22.8932 74.9038C22.955 74.9054 23.012 74.9067 23.0599 74.9102C23.1623 74.917 23.2643 74.9196 23.3663 74.9206C23.6053 74.8944 23.8637 74.8486 24.1163 74.7832C24.1626 74.7632 24.23 74.7358 24.2954 74.7045C24.3385 74.6845 24.3799 74.6619 24.4214 74.6397L24.5072 74.5942C24.5781 74.5388 24.6717 74.4691 24.7601 74.392C24.7967 74.3598 24.832 74.3259 24.8673 74.2927L24.8925 74.2685C25.0551 74.058 25.2199 73.8258 25.3809 73.5749L25.4185 73.4924C25.4881 73.3373 25.5516 73.1789 25.6092 73.0187C25.6668 72.8587 25.7187 72.6965 25.7643 72.5327L25.7837 72.4415C25.7938 72.3937 25.8029 72.3508 25.8051 72.3389C25.8715 71.9655 25.9181 71.5714 25.9466 71.1345C26.0004 70.3193 25.981 69.4857 25.9622 68.6796C25.945 67.9486 26.5331 67.3281 26.7867 67.0956C27.2141 66.7035 27.8417 66.5023 28.5526 66.5284C29.1122 66.5494 29.7582 66.8696 30.1601 67.3252C30.6342 67.8634 30.7116 68.4651 30.7249 69.0349C30.7398 69.6631 30.755 70.3135 30.7352 70.9655C30.6339 74.2918 29.3784 76.983 27.2906 78.3496C26.4334 78.9104 25.4959 79.2854 24.5179 79.4644Z" fill="#BD2E9E"/>
<path d="M34.0834 18.3481C34.0021 18.5958 33.926 18.857 33.857 19.1236C33.6453 19.9392 33.4901 20.8517 33.3826 21.9139C33.3752 22.0461 33.369 22.1809 33.3648 22.3167C34.2563 21.9958 34.994 21.7059 35.6715 21.4106C35.872 21.3232 36.0705 21.2319 36.269 21.1403C36.3785 21.0855 36.4827 21.033 36.5864 20.9798C37.0595 20.7347 37.484 20.4922 37.8836 20.2397C38.2395 20.0146 38.566 19.7702 38.9118 19.5113L39.0304 19.4226C39.1126 19.3474 39.1913 19.2733 39.2687 19.1975C39.4374 19.0327 39.5945 18.865 39.736 18.6993C39.7982 18.6261 39.8581 18.5513 39.917 18.4755L39.9902 18.3488C40.0858 18.1872 40.1764 18.0347 40.2516 17.8706C40.271 17.8286 40.2888 17.7864 40.3069 17.7435L40.3419 17.6348C40.35 17.5936 40.3578 17.5542 40.3665 17.5197C40.4096 17.3498 40.4446 17.1611 40.4763 16.927C40.4792 16.6936 40.4646 16.4362 40.4316 16.1815C40.3928 16.0367 40.3516 15.9042 40.3073 15.7842C40.2901 15.7388 40.2713 15.6936 40.2522 15.6491C40.2137 15.5875 40.1654 15.523 40.1172 15.4585C40.0563 15.3766 39.9948 15.2937 39.941 15.2106C39.8766 15.1503 39.8102 15.0912 39.7412 15.0355C39.725 15.0222 39.7062 15.009 39.6871 14.9961L39.6881 14.9942L39.6563 14.9755C39.6256 14.9552 39.6003 14.9397 39.5841 14.9303L39.5825 14.9326C39.4915 14.8839 39.3979 14.8404 39.3037 14.7997L39.3073 14.7904C39.2707 14.7733 39.2039 14.7456 39.1489 14.7301L39.1414 14.7272L39.1411 14.7285C39.0388 14.7004 38.9358 14.6753 38.8325 14.654C38.7091 14.6282 38.5851 14.6088 38.4607 14.5924C38.1952 14.5888 37.9057 14.6056 37.6178 14.6427C37.5281 14.6669 37.4209 14.6965 37.3143 14.7307C37.2849 14.7404 37.2392 14.7527 37.1851 14.7672C37.1385 14.7794 37.0585 14.801 36.9782 14.8252L36.9827 14.8342C36.9144 14.8697 36.8464 14.9055 36.7794 14.9423C36.6961 14.989 36.6136 15.0377 36.5323 15.0877C36.3535 15.198 36.178 15.3179 36.0106 15.445C35.9746 15.4721 35.94 15.4995 35.905 15.5275C35.871 15.5598 35.8451 15.5872 35.8273 15.604C35.6605 15.7633 35.4989 15.9319 35.347 16.106C35.2356 16.2328 35.1326 16.3653 35.029 16.4981L34.9659 16.583C34.9257 16.6442 34.8859 16.7052 34.8473 16.7674C34.6058 17.1618 34.3852 17.5971 34.1919 18.0602L34.132 18.2133C34.1126 18.2665 34.0915 18.3239 34.0834 18.3481ZM40.7959 37.7137C39.7441 37.9594 38.6544 37.9736 37.5763 37.7498C36.1667 37.458 34.8065 36.7831 33.644 35.7979C32.6682 34.9715 31.8062 33.9128 31.0811 32.652C30.2799 31.2583 29.7304 30.001 29.4004 28.8085C28.6089 25.9457 28.4052 23.0358 28.7945 20.1604C29.2206 17.0138 30.3674 14.416 32.1103 12.647C34.2939 10.4316 37.2285 9.48391 39.9604 10.113C41.4792 10.4619 42.7684 11.2439 43.7918 12.4374C44.6425 13.4293 45.1736 14.8429 45.2484 16.3156C45.3213 17.7512 44.9848 19.2007 44.3002 20.3964C43.7694 21.3245 43.0583 22.148 42.0618 22.989C40.2969 24.4788 38.1864 25.4391 36.5452 26.1092C35.8172 26.4062 35.0653 26.668 34.3379 26.9221L33.8836 27.0814C34.0718 27.8073 34.2881 28.4422 34.5429 29.0191C34.6177 29.1887 34.6948 29.3583 34.7767 29.526L34.8133 29.595C34.8716 29.7053 34.9312 29.8153 34.9918 29.9243C35.2411 30.3718 35.4908 30.7678 35.7551 31.1358C35.8972 31.3334 36.0491 31.5237 36.202 31.7133L36.2599 31.7726C36.3127 31.8271 36.3658 31.8823 36.4206 31.9358C36.5825 32.0941 36.7518 32.2457 36.9248 32.3876C37.018 32.4643 37.1129 32.5378 37.2094 32.6091L37.245 32.6288C37.4011 32.7191 37.5559 32.809 37.7191 32.8883C37.827 32.9409 37.9368 32.9902 38.0478 33.0364C38.1217 33.067 38.1965 33.0967 38.2716 33.1247L38.2684 33.1331C38.3435 33.1483 38.4212 33.1595 38.4853 33.1695C38.5462 33.1786 38.6029 33.187 38.6499 33.1966C38.7499 33.2157 38.851 33.2311 38.9523 33.245C39.1929 33.2492 39.4549 33.2353 39.7137 33.2024C39.772 33.1853 39.8374 33.1679 39.9015 33.1466C39.9462 33.1321 39.9902 33.1147 40.0346 33.0976L40.1249 33.0634C40.203 33.0173 40.3043 32.9593 40.4018 32.8942C40.4491 32.8622 40.4954 32.8277 40.5417 32.7932C40.7376 32.5985 40.9307 32.3885 41.1204 32.1612L41.1677 32.0844C41.2568 31.9387 41.3397 31.7897 41.4171 31.6382C41.4945 31.4866 41.5663 31.3321 41.6321 31.1754L41.6625 31.0884C41.6787 31.0422 41.693 31.0003 41.6965 30.9887C41.8102 30.6259 41.9057 30.2409 41.9893 29.8111C42.1457 29.0065 42.2312 28.1784 42.3138 27.3774C42.3889 26.65 43.0502 26.1079 43.3313 25.9089C43.805 25.5729 44.4524 25.4517 45.1545 25.5668C45.7073 25.6577 46.3077 26.056 46.649 26.5587C47.0515 27.1511 47.0528 27.7573 46.9945 28.3248C46.9298 28.9507 46.863 29.597 46.7614 30.2412C46.2416 33.5284 44.6571 36.042 42.4138 37.1368C41.8902 37.3922 41.3484 37.585 40.7959 37.7137Z" fill="#1969BC"/>
<path d="M118.45 13.1784C117.8 13.2074 117.125 13.4202 116.671 13.9123C116.192 14.4324 116.015 14.9861 115.934 15.6836C115.798 16.8687 115.644 18.0511 115.486 19.2333C115.168 21.5741 114.831 23.9126 114.452 26.244C114.259 27.4277 114.054 28.608 113.812 29.7808C113.745 30.0145 113.669 30.2461 113.584 30.4741C113.36 30.9581 113.099 31.4218 112.794 31.8587C112.549 32.1496 112.282 32.4188 111.993 32.6655C111.809 32.7871 111.619 32.8993 111.423 32.9983C111.201 33.0741 110.977 33.1357 110.749 33.1824C110.528 33.1963 110.308 33.1969 110.087 33.184C109.822 33.1295 109.562 33.0583 109.307 32.9693C109.001 32.8193 108.709 32.6478 108.428 32.455C108.188 32.2476 107.964 32.0241 107.754 31.7855C107.627 31.5962 107.514 31.4002 107.411 31.197C107.271 30.8059 107.168 30.4057 107.094 29.9971C106.955 28.6038 107.045 27.1859 107.216 25.7961C107.739 22.149 108.762 18.5826 109.86 15.0719C110.252 13.8204 109.397 12.2835 108.103 11.9901C106.736 11.6799 105.427 12.3996 105.008 13.7398C104.205 16.306 103.455 18.8934 102.892 21.5231C102.318 24.1996 101.816 27.0434 102.039 29.7898C102.166 31.3528 102.5 32.9554 103.385 34.284C104.257 35.5935 105.495 36.725 106.939 37.3793C108.317 38.0042 109.715 38.2696 111.18 38.141C110.65 39.1896 110.032 40.1967 109.33 41.1363C108.917 41.6345 108.469 42.0986 107.972 42.5136C107.685 42.7112 107.385 42.886 107.07 43.0395C106.807 43.1308 106.538 43.202 106.265 43.2569C105.664 43.3107 105.062 43.3075 104.461 43.2514C103.873 43.1488 103.297 42.9937 102.738 42.7835C102.406 42.6255 102.086 42.4468 101.781 42.2417C101.583 42.0705 101.394 41.8899 101.232 41.6816C101.285 41.75 101.338 41.8183 101.391 41.8864C101.042 41.4636 100.65 41.1379 100.081 40.9815C99.4787 40.8164 98.6769 40.8913 98.1426 41.234C97.6053 41.5794 97.1322 42.0924 96.9861 42.7316C96.8449 43.3488 96.8462 44.1288 97.2397 44.6618C99.5354 47.7704 103.938 48.8065 107.609 48.0912C111.169 47.3979 113.593 44.1943 115.239 41.2186C116.215 39.4534 116.929 37.5373 117.509 35.6109C117.909 34.2853 118.291 32.9451 118.578 31.5901C118.624 31.3728 118.664 31.1545 118.707 30.9368C118.739 30.812 118.777 30.6879 118.803 30.5627C118.831 30.4247 118.85 30.2867 118.862 30.1487C119.228 28.2113 119.521 26.2578 119.809 24.3089C120.233 21.4399 120.635 18.5651 120.966 15.6836C121.035 15.0887 120.636 14.3173 120.229 13.9123C119.793 13.4776 119.077 13.1506 118.45 13.1784ZM126.559 10.6135C127.565 10.0086 126.647 8.43396 125.637 9.04181C123.925 10.0721 123.704 10.2398 122.211 11.5648C121.331 12.3451 122.627 13.6289 123.504 12.8517C124.883 11.6276 124.978 11.5654 126.559 10.6135ZM120.868 6.54014C119.944 8.21083 120 8.07829 119.461 9.90891C119.129 11.035 120.893 11.5161 121.224 10.3929C121.72 8.70741 121.595 8.99764 122.446 7.45852C123.014 6.43211 121.436 5.51245 120.868 6.54014ZM127.382 16.3172C125.837 16.1164 125.765 16.0886 124.217 16.2705C123.05 16.4075 123.063 14.5859 124.217 14.4502C125.764 14.2683 125.837 14.2957 127.382 14.4966C128.534 14.6466 128.545 16.4685 127.382 16.3172Z" fill="#B2DB18"/>
<path d="M87.3273 74.4317C87.1894 74.4153 87.054 74.3882 86.9232 74.3498C86.3727 74.1889 85.8105 73.6997 85.5245 73.1328C85.1793 72.4479 85.2612 71.7936 85.3872 71.2438C85.5864 70.3735 85.7962 69.5048 86.0061 68.6367C86.3697 67.1315 86.7454 65.5785 87.0569 64.0329C87.2619 62.9355 87.4229 61.8543 87.5352 60.8147C87.6787 59.49 87.8021 58.1937 87.7496 56.9274C87.7043 56.5137 87.6363 56.1374 87.5436 55.7846L87.509 55.645C87.4951 55.5882 87.4812 55.5302 87.4659 55.474C87.4543 55.4495 87.4423 55.4215 87.429 55.3899L87.3837 55.2802C87.3581 55.2183 87.3325 55.1564 87.3053 55.0948C87.2192 54.8994 87.1253 54.7088 87.0262 54.5296C86.9944 54.4712 86.9608 54.4144 86.9274 54.3577L86.8668 54.2542C86.8377 54.2039 86.8141 54.1626 86.8018 54.1245C86.6823 53.9765 86.5313 53.8337 86.3921 53.7015C86.3678 53.6786 86.3438 53.6557 86.3205 53.6334C86.2716 53.5963 86.2237 53.558 86.1758 53.5199L86.0592 53.4274C85.9002 53.3055 85.7386 53.1865 85.5737 53.0727C85.3833 52.9411 85.2036 52.8257 85.0242 52.7196C84.9562 52.6793 84.8879 52.6396 84.8186 52.6012C84.7713 52.5848 84.7298 52.5699 84.6936 52.5564C84.6045 52.5245 84.5158 52.4922 84.4277 52.46C84.0145 52.3094 83.6204 52.1659 83.2026 52.0617C82.6712 51.9795 82.1469 51.9453 81.6368 51.9605C81.4166 51.9872 81.212 52.0214 81.017 52.0637C80.8638 52.0972 80.712 52.1359 80.5617 52.1807C80.5517 52.1836 80.5416 52.1865 80.5319 52.1898C80.2482 52.3191 79.9538 52.4687 79.6407 52.6435C79.6391 52.6447 79.6375 52.646 79.6362 52.647C79.595 52.6799 79.5552 52.7147 79.516 52.7505C79.4804 52.7934 79.4215 52.8537 79.3282 52.9456C79.3127 52.9637 79.2984 52.9808 79.2871 52.9956C79.0986 53.2416 78.925 53.5006 78.7702 53.7653C78.7553 53.7908 78.7408 53.8163 78.7262 53.8421C78.7048 53.8956 78.6809 53.9488 78.6566 54.0017C78.6287 54.0633 78.6002 54.1245 78.5779 54.1868C78.5011 54.4035 78.4461 54.6324 78.3981 54.8607C77.9678 57.2073 77.756 59.6367 77.5506 61.9898L77.4629 62.9881C77.3916 63.7878 77.3291 64.435 77.2731 65.0158C77.1313 66.4836 77.029 67.5442 76.9308 69.5877C76.8674 70.9036 75.7336 71.9197 74.3498 71.8997C73.7588 71.8933 73.1931 71.6324 72.7569 71.1703C72.2808 70.6656 72.0153 69.9675 72.0473 69.3023C72.2776 64.5124 72.6166 61.6476 73.1779 56.9013C73.3294 55.6214 73.5153 54.4696 73.7488 53.3577C73.9369 52.4613 74.3427 51.5455 74.9544 50.6364C75.5293 49.7822 76.0626 49.197 76.6332 48.7936C77.688 48.0477 78.7009 47.5721 79.8204 47.2957C83.3661 46.4215 87.6295 47.7723 90.1881 50.5797C91.99 52.5567 92.5023 55.0777 92.6146 56.8448C92.7367 58.7635 92.4939 60.7257 92.2565 62.4141C91.8899 65.0235 91.2629 67.6242 90.6564 70.1391C90.4433 71.0242 90.2299 71.9088 90.0269 72.7949C89.9038 73.3331 89.5657 73.7774 89.0489 74.0793C88.5414 74.3756 87.9115 74.5004 87.3273 74.4317Z" fill="#F36717"/>
<path d="M118.246 80.741C118.362 80.2293 118.978 79.9484 119.455 80.09C119.982 80.247 120.224 80.7846 120.109 81.2941C119.433 84.2856 117.818 87.0955 115.998 89.5366C115.684 89.9574 115.146 90.1528 114.663 89.8606C114.244 89.6069 114.025 88.9513 114.338 88.5314C116.098 86.1707 117.601 83.5993 118.246 80.741ZM114.165 81.4695C114.343 80.9581 114.845 80.6856 115.374 80.8184C115.868 80.9426 116.195 81.5433 116.028 82.0225C115.494 83.5536 114.715 85.0237 113.796 86.3596C113.488 86.8066 112.943 86.9481 112.461 86.684C112.018 86.4409 111.847 85.7731 112.135 85.3548C112.557 84.7422 112.94 84.104 113.288 83.4478C113.38 83.274 113.469 83.0989 113.556 82.9231C113.601 82.8303 113.646 82.7368 113.69 82.6429C113.72 82.58 113.853 82.2689 113.744 82.5317C113.891 82.1792 114.039 81.83 114.165 81.4695ZM111.38 50.9705C110.853 50.6513 110.08 50.5026 109.478 50.6774C108.852 50.8589 108.247 51.2249 107.924 51.8099C107.581 52.4284 107.541 53.0078 107.629 53.7047C107.779 54.8878 107.911 56.0729 108.038 57.2586C108.286 59.6077 108.514 61.9594 108.701 64.3144C108.796 65.5098 108.877 66.7048 108.921 67.9012C108.911 68.1443 108.893 68.3865 108.864 68.6283C108.762 69.1514 108.618 69.6634 108.426 70.16C108.257 70.5002 108.062 70.8249 107.84 71.1329C107.69 71.2944 107.533 71.4479 107.365 71.5908C107.168 71.7165 106.965 71.8291 106.754 71.9284C106.542 71.9942 106.329 72.0468 106.111 72.0861C105.841 72.0958 105.571 72.0877 105.302 72.0613C104.969 71.9874 104.645 71.8904 104.326 71.7691C104.043 71.6246 103.772 71.4602 103.512 71.2774C103.344 71.1236 103.187 70.9601 103.039 70.7872C102.81 70.4396 102.614 70.0755 102.445 69.6957C101.979 68.3745 101.729 66.976 101.564 65.5859C101.205 61.9191 101.35 58.2131 101.582 54.5428C101.665 53.2345 100.469 51.9431 99.1416 51.9634C97.7403 51.9843 96.6396 52.9924 96.5512 54.3931C96.3815 57.0757 96.2691 59.7664 96.3472 62.4544C96.4268 65.1896 96.614 68.0711 97.4845 70.6866C97.98 72.1754 98.6856 73.6536 99.8615 74.7355C101.021 75.8022 102.492 76.6093 104.05 76.9047C105.538 77.1868 106.96 77.1146 108.353 76.6441C108.087 77.7879 107.726 78.912 107.267 79.9907C106.985 80.5717 106.66 81.1286 106.276 81.6491C106.044 81.909 105.794 82.1496 105.525 82.3727C105.291 82.5233 105.047 82.6558 104.794 82.7742C104.223 82.9676 103.637 83.1069 103.041 83.194C102.444 83.2334 101.848 83.2185 101.255 83.146C100.895 83.0708 100.541 82.9725 100.196 82.8454C99.9632 82.7255 99.7368 82.5942 99.5302 82.4304C99.5979 82.4843 99.6656 82.5381 99.7332 82.592C99.2935 82.2637 98.8352 82.0393 98.2449 82.0222C97.6208 82.0035 96.8592 82.2653 96.4217 82.7245C95.9816 83.1863 95.6444 83.797 95.6545 84.4519C95.6642 85.0849 95.8507 85.8424 96.3601 86.2677C99.3297 88.7462 103.853 88.7146 107.25 87.1535C110.544 85.6399 112.136 81.9564 113.027 78.6769C113.556 76.7315 113.794 74.7019 113.9 72.6933C113.972 71.3109 114.025 69.9188 113.982 68.5345C113.975 68.3129 113.961 68.0911 113.951 67.8696C113.953 67.7409 113.96 67.6116 113.956 67.4836C113.95 67.343 113.936 67.2043 113.915 67.0676C113.809 65.0986 113.629 63.1319 113.445 61.1707C113.175 58.2827 112.881 55.3954 112.518 52.518C112.443 51.9237 111.872 51.2681 111.38 50.9705Z" fill="#F89C0E"/>
</g>
<defs>
<filter id="filter0_d_35_858" x="0" y="0" width="130.25" height="91" filterUnits="userSpaceOnUse" color-interpolation-filters="sRGB">
<feFlood flood-opacity="0" result="BackgroundImageFix"/>
<feColorMatrix in="SourceAlpha" type="matrix" values="0 0 0 0 0 0 0 0 0 0 0 0 0 0 0 0 0 0 127 0" result="hardAlpha"/>
<feOffset dx="2" dy="1"/>
<feComposite in2="hardAlpha" operator="out"/>
<feColorMatrix type="matrix" values="0 0 0 0 1 0 0 0 0 1 0 0 0 0 1 0 0 0 1 0"/>
<feBlend mode="normal" in2="BackgroundImageFix" result="effect1_dropShadow_35_858"/>
<feBlend mode="normal" in="SourceGraphic" in2="effect1_dropShadow_35_858" result="shape"/>
</filter>
</defs>
</svg>
