<svg width="36" height="32" viewBox="0 0 36 32" fill="none" xmlns="http://www.w3.org/2000/svg">
<path d="M31.0737 5.76687L16.3705 1.0741C16.1179 0.975301 15.8653 0.975301 15.5621 1.0741L0.858948 5.76687C0.353685 5.91506 0 6.40904 0 6.95241V25.8223C0 26.3657 0.353685 26.8102 0.858948 27.0078L15.5621 31.7006C15.7137 31.75 15.8147 31.75 15.9663 31.75C16.1179 31.75 16.2189 31.75 16.3705 31.7006L31.0737 26.9584C31.5789 26.8102 31.9326 26.3163 31.9326 25.7729V6.95241C31.9326 6.40904 31.5789 5.96446 31.0737 5.76687ZM14.7032 28.8355L2.52631 24.9331V8.63193L7.37684 10.1633V19.4006C7.37684 20.0922 7.93264 20.6355 8.64001 20.6355C9.34737 20.6355 9.90316 20.0922 9.90316 19.4006V11.003L14.7537 12.5343V28.8355H14.7032ZM15.9663 10.3608L12.5305 9.27409L14.9558 8.43434C15.6126 8.18735 15.9663 7.49578 15.7137 6.85361C15.4611 6.21145 14.7537 5.91506 14.0968 6.11265L8.69053 8.03916L5.30526 6.95241L15.9663 3.54398L26.6274 6.95241L15.9663 10.3608ZM29.4063 24.9331L24.5558 26.4645V21.1295C24.5558 20.438 24 19.8946 23.2926 19.8946C22.5853 19.8946 22.08 20.438 22.08 21.1295V27.3042L17.2295 28.8355V12.5343L29.4063 8.63193V24.9331Z" fill="#F36717"/>
<circle cx="29" cy="7" r="7" fill="white"/>
<path d="M28.9402 13C30.4744 13 32.0086 12.408 33.1782 11.2391C35.5174 8.90133 35.5174 5.09108 33.1782 2.75332C30.8389 0.41556 27.0263 0.41556 24.687 2.75332C22.3478 5.09108 22.3478 8.90133 24.687 11.2391C25.8719 12.408 27.406 13 28.9402 13ZM25.4465 3.51233C26.4035 2.55598 27.6795 2.07021 28.9402 2.07021C30.201 2.07021 31.4617 2.55598 32.4339 3.51233C34.363 5.44023 34.363 8.56736 32.4339 10.4953C30.5048 12.4231 27.3757 12.4231 25.4465 10.4953C23.5174 8.56736 23.5174 5.44023 25.4465 3.51233Z" fill="#F36717"/>
<path d="M26.8136 7.83871H29.244C29.5326 7.83871 29.7757 7.59582 29.7757 7.3074V4.27135C29.7757 3.98292 29.5326 3.74004 29.244 3.74004C28.9554 3.74004 28.7124 3.98292 28.7124 4.27135V6.77609H26.8136C26.525 6.77609 26.282 7.01897 26.282 7.3074C26.282 7.59582 26.525 7.83871 26.8136 7.83871Z" fill="#F36717"/>
<path d="M28.9402 13C30.4744 13 32.0086 12.408 33.1782 11.2391C35.5174 8.90133 35.5174 5.09108 33.1782 2.75332C30.8389 0.41556 27.0263 0.41556 24.687 2.75332C22.3478 5.09108 22.3478 8.90133 24.687 11.2391C25.8719 12.408 27.406 13 28.9402 13ZM25.4465 3.51233C26.4035 2.55598 27.6795 2.07021 28.9402 2.07021C30.201 2.07021 31.4617 2.55598 32.4339 3.51233C34.363 5.44023 34.363 8.56736 32.4339 10.4953C30.5048 12.4231 27.3757 12.4231 25.4465 10.4953C23.5174 8.56736 23.5174 5.44023 25.4465 3.51233Z" stroke="#F36717"/>
<path d="M26.8136 7.83871H29.244C29.5326 7.83871 29.7757 7.59582 29.7757 7.3074V4.27135C29.7757 3.98292 29.5326 3.74004 29.244 3.74004C28.9554 3.74004 28.7124 3.98292 28.7124 4.27135V6.77609H26.8136C26.525 6.77609 26.282 7.01897 26.282 7.3074C26.282 7.59582 26.525 7.83871 26.8136 7.83871Z" stroke="#F36717"/>
</svg>
