<svg width="57" height="24" viewBox="0 0 57 24" fill="none" xmlns="http://www.w3.org/2000/svg">
<path d="M10.6925 3.09493C11.3586 2.26179 11.8106 1.14314 11.6914 0C10.7163 0.0484845 9.52641 0.643285 8.83752 1.47708C8.21898 2.19109 7.67152 3.35659 7.81424 4.4518C8.9088 4.54675 10.0024 3.90469 10.6925 3.09493Z" fill="black"/>
<path d="M11.6792 4.66564C10.0896 4.57096 8.73807 5.5678 7.97897 5.5678C7.21945 5.5678 6.05702 4.71336 4.79976 4.73639C3.16335 4.76042 1.64495 5.68566 0.814545 7.15722C-0.893461 10.1011 0.363803 14.4678 2.02475 16.8654C2.83134 18.0516 3.80342 19.3577 5.08429 19.3107C6.29449 19.2633 6.76884 18.5271 8.2399 18.5271C9.70987 18.5271 10.1372 19.3107 11.4182 19.287C12.7467 19.2632 13.5773 18.1002 14.3839 16.9129C15.3092 15.5607 15.688 14.2551 15.7118 14.1834C15.688 14.1597 13.1501 13.1861 13.1265 10.2667C13.1026 7.82228 15.1191 6.65956 15.214 6.58746C14.0752 4.90326 12.296 4.71336 11.6792 4.66564Z" fill="black"/>
<path d="M25.5194 1.35749C28.9743 1.35749 31.3801 3.73899 31.3801 7.20626C31.3801 10.6859 28.9248 13.0798 25.4328 13.0798H21.6076V19.163H18.8438V1.35749L25.5194 1.35749ZM21.6076 10.7599H24.7788C27.185 10.7599 28.5545 9.46447 28.5545 7.21864C28.5545 4.97305 27.185 3.68972 24.7911 3.68972H21.6076V10.7599Z" fill="black"/>
<path d="M32.1025 15.4737C32.1025 13.2031 33.8424 11.8088 36.9274 11.636L40.4808 11.4264V10.427C40.4808 8.98323 39.506 8.1195 37.8775 8.1195C36.3348 8.1195 35.3723 8.8597 35.1381 10.0197H32.6209C32.769 7.67514 34.7677 5.94769 37.9761 5.94769C41.1225 5.94769 43.1337 7.6135 43.1337 10.2171V19.163H40.5794V17.0283H40.518C39.7654 18.4721 38.1241 19.3851 36.4214 19.3851C33.8795 19.3851 32.1025 17.8056 32.1025 15.4737ZM40.4808 14.3015V13.2773L37.2849 13.4747C35.6931 13.5858 34.7925 14.2891 34.7925 15.3996C34.7925 16.5347 35.7302 17.2751 37.1616 17.2751C39.0247 17.2751 40.4808 15.9918 40.4808 14.3015Z" fill="black"/>
<path d="M45.5446 23.9384V21.7789C45.7417 21.8282 46.1858 21.8282 46.4081 21.8282C47.6419 21.8282 48.3083 21.3101 48.7153 19.9775C48.7153 19.9527 48.95 19.1878 48.95 19.1754L44.2613 6.18213H47.1483L50.4309 16.7446H50.4799L53.7625 6.18213H56.5757L51.7137 19.8416C50.6037 22.9882 49.3203 24 46.6304 24C46.4081 24 45.7417 23.9752 45.5446 23.9384Z" fill="black"/>
</svg>
