<svg width="91" height="24" viewBox="0 0 91 24" fill="none" xmlns="http://www.w3.org/2000/svg">
<path d="M29.0526 4.79942C28.8657 4.79942 28.7068 4.93467 28.6776 5.11884L26.5132 18.7952C26.5053 18.8452 26.5084 18.8962 26.5222 18.9449C26.5361 18.9935 26.5603 19.0386 26.5933 19.0771C26.6263 19.1155 26.6672 19.1463 26.7133 19.1675C26.7594 19.1887 26.8096 19.1996 26.8603 19.1996H29.4272C29.6139 19.1996 29.773 19.0641 29.8022 18.8802L30.438 14.864C30.467 14.6801 30.6261 14.5446 30.8131 14.5446H33.1468C35.8735 14.5446 38.1882 12.5623 38.611 9.87623C39.0372 7.16742 36.9133 4.8053 33.903 4.79942H29.0526ZM31.5479 7.85251H33.415C34.9522 7.85251 35.4528 8.75625 35.2946 9.75568C35.1363 10.7572 34.3588 11.495 32.8718 11.495H30.9713L31.5479 7.85251ZM43.8315 8.78217C43.1834 8.78458 42.4376 8.91689 41.6003 9.26438C39.6798 10.062 38.7574 11.7104 38.3658 12.9122C38.3658 12.9122 37.1191 16.5788 39.9357 18.5931C39.9357 18.5931 42.5479 20.5324 45.4884 18.4736L45.4377 18.7952C45.4298 18.8451 45.4329 18.8961 45.4467 18.9448C45.4605 18.9934 45.4847 19.0384 45.5176 19.0769C45.5506 19.1153 45.5914 19.1461 45.6375 19.1673C45.6835 19.1885 45.7336 19.1995 45.7843 19.1996H48.221C48.408 19.1996 48.5668 19.0641 48.5961 18.8802L50.0783 9.51458C50.0862 9.46462 50.0832 9.41355 50.0695 9.36486C50.0557 9.31618 50.0315 9.27105 49.9986 9.23256C49.9656 9.19408 49.9247 9.16316 49.8787 9.14194C49.8326 9.12072 49.7824 9.10969 49.7317 9.10962H47.295C47.108 9.10962 46.9489 9.24514 46.9199 9.42904L46.8402 9.93316C46.8402 9.93316 45.7763 8.77496 43.8315 8.78217ZM43.9112 11.7404C44.191 11.7404 44.447 11.7789 44.6766 11.8524C45.728 12.1886 46.3241 13.195 46.1516 14.2859C45.9388 15.629 44.8333 16.6181 43.4155 16.6181C43.1359 16.6181 42.88 16.5798 42.6501 16.5063C41.599 16.1701 40.9991 15.1637 41.1716 14.0728C41.3844 12.7297 42.4934 11.7404 43.9112 11.7404Z" fill="#003087"/>
<path d="M64.1429 4.79942C63.9559 4.79942 63.7971 4.93467 63.7678 5.11884L61.6034 18.7952C61.5955 18.8452 61.5986 18.8962 61.6124 18.9449C61.6263 18.9935 61.6505 19.0386 61.6835 19.0771C61.7165 19.1155 61.7575 19.1463 61.8036 19.1675C61.8497 19.1887 61.8998 19.1996 61.9505 19.1996H64.5174C64.7041 19.1996 64.8632 19.0641 64.8924 18.8802L65.5282 14.864C65.5572 14.6801 65.7163 14.5446 65.9033 14.5446H68.237C70.9637 14.5446 73.2781 12.5623 73.7006 9.87623C74.1272 7.16742 72.0035 4.8053 68.9933 4.79942H64.1429ZM66.6381 7.85251H68.5053C70.0425 7.85251 70.5431 8.75625 70.3848 9.75568C70.2265 10.7572 69.4493 11.495 67.962 11.495H66.0616L66.6381 7.85251ZM78.9215 8.78217C78.2734 8.78458 77.5275 8.91689 76.6903 9.26438C74.7697 10.062 73.8474 11.7104 73.4557 12.9122C73.4557 12.9122 72.2096 16.5788 75.0262 18.5931C75.0262 18.5931 77.6378 20.5324 80.5786 18.4736L80.5279 18.7952C80.5201 18.8452 80.5231 18.8962 80.537 18.9449C80.5508 18.9935 80.575 19.0386 80.608 19.0771C80.641 19.1155 80.682 19.1463 80.7281 19.1675C80.7742 19.1887 80.8243 19.1996 80.8751 19.1996H83.3115C83.4985 19.1996 83.6573 19.0641 83.6866 18.8802L85.1693 9.51458C85.1773 9.46458 85.1742 9.41346 85.1605 9.36473C85.1467 9.31601 85.1224 9.27085 85.0894 9.23236C85.0564 9.19387 85.0155 9.16296 84.9693 9.14177C84.9232 9.12058 84.873 9.10961 84.8222 9.10962H82.3854C82.1985 9.10962 82.0394 9.24514 82.0104 9.42904L81.9307 9.93316C81.9307 9.93316 80.8662 8.77496 78.9215 8.78217ZM79.0012 11.7404C79.281 11.7404 79.5369 11.7789 79.7666 11.8524C80.8179 12.1886 81.414 13.195 81.2415 14.2859C81.0288 15.629 79.9232 16.6181 78.5054 16.6181C78.2259 16.6181 77.9699 16.5798 77.74 16.5063C76.6889 16.1701 76.0891 15.1637 76.2616 14.0728C76.4743 12.7297 77.5834 11.7404 79.0012 11.7404Z" fill="#0070E0"/>
<path d="M51.2349 9.10962C51.0417 9.10962 50.9043 9.29753 50.9634 9.48063L53.6348 17.7404L51.2193 21.6329C51.1021 21.8218 51.2383 22.0659 51.4613 22.0659H54.3162C54.3979 22.0658 54.4781 22.0448 54.5492 22.0048C54.6203 21.9648 54.6799 21.9072 54.7221 21.8376L62.1831 9.53997C62.2976 9.35099 62.1608 9.10935 61.9392 9.10935H59.0845C59.0021 9.10942 58.9211 9.13088 58.8495 9.17161C58.7779 9.21234 58.7182 9.27093 58.6762 9.34164L55.7394 14.2819L54.2486 9.37826C54.2001 9.21868 54.0523 9.10935 53.8851 9.10935L51.2349 9.10962Z" fill="#003087"/>
<path d="M87.9379 4.79942C87.7512 4.79942 87.5921 4.93494 87.5629 5.11884L85.3979 18.7947C85.39 18.8447 85.393 18.8958 85.4068 18.9445C85.4206 18.9932 85.4448 19.0384 85.4778 19.0769C85.5108 19.1154 85.5518 19.1463 85.5979 19.1675C85.644 19.1887 85.6942 19.1996 85.745 19.1996H88.3119C88.4986 19.1996 88.6577 19.0641 88.6869 18.8802L90.8514 5.20384C90.8592 5.15393 90.8562 5.10291 90.8424 5.05429C90.8286 5.00568 90.8044 4.96061 90.7714 4.92219C90.7385 4.88377 90.6976 4.8529 90.6516 4.83171C90.6056 4.81052 90.5555 4.7995 90.5048 4.79942H87.9379Z" fill="#0070E0"/>
<path d="M7.65334 4.79942C7.48799 4.79955 7.32811 4.85844 7.20243 4.96549C7.07674 5.07254 6.99348 5.22074 6.96762 5.38346L5.82828 12.5834C5.8814 12.2472 6.1722 11.9994 6.51398 11.9994H9.85264C13.2128 11.9994 16.064 9.55708 16.5849 6.24738C16.6237 6.00028 16.6457 5.75086 16.6507 5.50081C15.7968 5.05469 14.7937 4.79942 13.6946 4.79942H7.65334Z" fill="#001C64"/>
<path d="M16.6507 5.50081C16.6457 5.75086 16.6237 6.00028 16.5849 6.24738C16.064 9.55708 13.2128 11.9994 9.85264 11.9994H6.51398C6.1722 11.9994 5.8814 12.2472 5.82828 12.5834L4.78057 19.1999L4.12438 23.3505C4.11158 23.4307 4.11637 23.5127 4.13846 23.5909C4.16055 23.669 4.19941 23.7415 4.25233 23.8033C4.30525 23.865 4.37099 23.9146 4.445 23.9486C4.51902 23.9825 4.59956 24.0001 4.68105 24.0001H8.30488C8.47023 23.9999 8.63011 23.941 8.75579 23.834C8.88148 23.7269 8.96473 23.5787 8.99058 23.416L9.94509 17.3839C9.97096 17.2211 10.0543 17.0728 10.1801 16.9657C10.3059 16.8587 10.4659 16.7998 10.6313 16.7998H12.7649C16.125 16.7998 18.9762 14.3575 19.4972 11.0478C19.8672 8.69879 18.6799 6.56092 16.6507 5.50081Z" fill="#0070E0"/>
<path d="M3.5364 0.000244141C3.19489 0.000244141 2.90382 0.247763 2.8507 0.583759L0.00699877 18.5505C-0.0469241 18.8916 0.2176 19.2001 0.564209 19.2001L4.78057 19.1999L5.82828 12.5834L6.96762 5.38346C6.99348 5.22074 7.07674 5.07254 7.20243 4.96549C7.32811 4.85844 7.48799 4.79955 7.65334 4.79942H13.6946C14.7937 4.79942 15.7968 5.05469 16.6507 5.50081C16.7092 2.48755 14.2137 0.000244141 10.7827 0.000244141H3.5364Z" fill="#003087"/>
</svg>
