<svg width="75" height="24" viewBox="0 0 75 24" fill="none" xmlns="http://www.w3.org/2000/svg">
<path d="M32.1346 23.6538H26.1273L29.8847 0.421133H35.8916L32.1346 23.6538Z" fill="#00579F"/>
<path d="M53.9113 0.989105C52.7264 0.519026 50.8471 0 48.5233 0C42.591 0 38.4135 3.16343 38.3878 7.68618C38.3386 11.023 41.3788 12.8764 43.6527 13.989C45.9768 15.126 46.7668 15.8681 46.7668 16.8815C46.7432 18.4379 44.8888 19.1553 43.1593 19.1553C40.7609 19.1553 39.4758 18.7854 37.5229 17.9195L36.7319 17.5483L35.8913 22.7635C37.3002 23.4054 39.896 23.975 42.591 24C48.8942 24 52.9977 20.8855 53.0464 16.0658C53.0704 13.4211 51.465 11.3946 48.0039 9.73862C45.9029 8.67561 44.6161 7.95883 44.6161 6.87117C44.6408 5.8824 45.7045 4.86964 48.0762 4.86964C50.0291 4.82004 51.464 5.28946 52.551 5.75921L53.0943 6.00591L53.9113 0.989105Z" fill="#00579F"/>
<path d="M61.8954 15.4233C62.3901 14.0886 64.2938 8.92297 64.2938 8.92297C64.2688 8.97257 64.7875 7.56364 65.0842 6.69871L65.504 8.70057C65.504 8.70057 66.6415 14.2617 66.8886 15.4233C65.9497 15.4233 63.082 15.4233 61.8954 15.4233ZM69.3106 0.421133H64.664C63.2311 0.421133 62.1425 0.840953 61.5242 2.34875L52.6013 23.6534H58.9045C58.9045 23.6534 59.9422 20.786 60.1652 20.1684C60.8567 20.1684 66.9884 20.1684 67.878 20.1684C68.0505 20.9841 68.5948 23.6534 68.5948 23.6534H74.1569L69.3106 0.421133Z" fill="#00579F"/>
<path d="M21.1099 0.421133L15.2268 16.2636L14.584 13.0505C13.4963 9.34311 10.0852 5.31508 6.27857 3.31224L11.6672 23.6291H18.0197L27.462 0.421133H21.1099Z" fill="#00579F"/>
<path d="M9.76392 0.421133H0.0988772L0 0.890555C7.53934 2.8185 12.5325 7.46575 14.584 13.0515L12.4829 2.37405C12.137 0.890227 11.074 0.470079 9.76392 0.421133Z" fill="#FAA61A"/>
</svg>
