<svg width="39" height="24" viewBox="0 0 39 24" fill="none" xmlns="http://www.w3.org/2000/svg">
<path d="M13.6389 2.56592H25.1899V21.4322H13.6389V2.56592Z" fill="#FF5F00"/>
<path d="M14.8286 12.0007C14.8272 10.1841 15.239 8.3909 16.0329 6.7569C16.8268 5.1229 17.982 3.6909 19.4111 2.56926C17.6411 1.17827 15.5155 0.313298 13.2773 0.0731967C11.039 -0.166904 8.77831 0.227554 6.75361 1.21149C4.72891 2.19542 3.02188 3.72914 1.8276 5.63734C0.633329 7.54555 0 9.75126 0 12.0024C0 14.2535 0.633329 16.4592 1.8276 18.3674C3.02188 20.2756 4.72891 21.8093 6.75361 22.7933C8.77831 23.7772 11.039 24.1717 13.2773 23.9316C15.5155 23.6915 17.6411 22.8265 19.4111 21.4355C17.9816 20.3135 16.8261 18.881 16.0322 17.2464C15.2383 15.6117 14.8267 13.8179 14.8286 12.0007V12.0007Z" fill="#EB001B"/>
<path d="M37.6774 19.4359V19.0493H37.844V18.9693H37.4475V19.0493H37.6041V19.4359L37.6774 19.4359ZM38.4473 19.4359V18.9694H38.3273L38.1873 19.3026L38.0473 18.9693H37.9274V19.4359H38.014V19.0826L38.144 19.386H38.234L38.364 19.0826V19.4359H38.4473Z" fill="#F79E1B"/>
<path d="M38.8239 12.0007C38.8238 14.252 38.1903 16.4579 36.9958 18.3662C35.8013 20.2744 34.0941 21.8081 32.0691 22.7919C30.0441 23.7757 27.7832 24.1699 25.5448 23.9294C23.3064 23.689 21.1808 22.8236 19.411 21.4322C20.8395 20.3095 21.9943 18.8771 22.7884 17.243C23.5826 15.609 23.9952 13.8159 23.9952 11.999C23.9952 10.1822 23.5826 8.38912 22.7884 6.75504C21.9943 5.12095 20.8395 3.68856 19.411 2.56592C21.1808 1.17449 23.3064 0.309085 25.5448 0.0686338C27.7832 -0.171817 30.0442 0.222388 32.0691 1.20619C34.0941 2.18999 35.8014 3.72369 36.9959 5.63197C38.1903 7.54025 38.8238 9.74611 38.8239 11.9974V12.0007Z" fill="#F79E1B"/>
</svg>
