<svg width="61" height="24" viewBox="0 0 61 24" fill="none" xmlns="http://www.w3.org/2000/svg">
<path d="M28.5422 11.7002V18.7179H26.2784V1.36233H32.1642C33.5979 1.36233 34.9562 1.89054 36.0126 2.87151C37.0691 3.77701 37.5973 5.13527 37.5973 6.56899C37.5973 8.00271 37.0691 9.28551 36.0126 10.2665C34.9562 11.2474 33.6734 11.7757 32.1642 11.7757L28.5422 11.7002ZM28.5422 3.47518V9.51189H32.3151C33.1452 9.51189 33.9752 9.21006 34.5035 8.60639C35.7108 7.4745 35.7108 5.58803 34.5789 4.45614L34.5035 4.38068C33.8998 3.77701 33.1452 3.39972 32.3151 3.47518H28.5422Z" fill="#5F6368"/>
<path d="M42.8039 6.49353C44.464 6.49353 45.7468 6.94628 46.7278 7.85179C47.7088 8.75729 48.1615 9.96464 48.1615 11.4738V18.7179H46.0487V17.0578H45.9732C45.0677 18.416 43.7849 19.0952 42.2757 19.0952C40.9929 19.0952 39.861 18.7179 38.9555 17.9633C38.1255 17.2087 37.5973 16.1523 37.5973 15.0204C37.5973 13.813 38.05 12.8321 38.9555 12.0775C39.861 11.3229 41.1438 11.0211 42.653 11.0211C44.0113 11.0211 45.0677 11.2474 45.8978 11.7757V11.2474C45.8978 10.4928 45.5959 9.73826 44.9922 9.28551C44.3886 8.75729 43.634 8.45546 42.8039 8.45546C41.5211 8.45546 40.5402 8.98367 39.861 10.0401L37.8991 8.83275C39.1064 7.24811 40.6911 6.49353 42.8039 6.49353ZM39.9365 15.0958C39.9365 15.6995 40.2383 16.2277 40.6911 16.5296C41.2193 16.9069 41.823 17.1332 42.4266 17.1332C43.3321 17.1332 44.2377 16.7559 44.9168 16.0768C45.6714 15.3977 46.0487 14.5676 46.0487 13.6621C45.3695 13.1339 44.3886 12.8321 43.1058 12.8321C42.2003 12.8321 41.4457 13.0585 40.842 13.5112C40.2383 13.8885 39.9365 14.4167 39.9365 15.0958Z" fill="#5F6368"/>
<path d="M60.3859 6.87082L52.9154 24H50.6517L53.4436 18.0387L48.5388 6.94628H50.9535L54.5001 15.4731H54.5755L58.0466 6.94628H60.3859V6.87082Z" fill="#5F6368"/>
<path d="M19.5629 10.191C19.5629 9.51189 19.4874 8.83276 19.412 8.15363H9.97959V12.002H15.3372C15.1108 13.2094 14.4317 14.3413 13.3752 15.0204V17.5105H16.62C18.5065 15.775 19.5629 13.2094 19.5629 10.191Z" fill="#4285F4"/>
<path d="M9.97974 19.9252C12.6963 19.9252 14.9599 19.0197 16.62 17.5105L13.3752 15.0204C12.4697 15.6241 11.338 16.0014 9.97974 16.0014C7.41413 16.0014 5.15037 14.2658 4.39578 11.8511H1.07558V14.4167C2.81114 17.8124 6.20679 19.9252 9.97974 19.9252Z" fill="#34A853"/>
<path d="M4.39578 11.8511C3.94302 10.6438 3.94243 9.28551 4.39519 8.00271V5.43711H1.075C-0.358725 8.22909 -0.358135 11.5493 1.07558 14.4167L4.39578 11.8511Z" fill="#FBBC04"/>
<path d="M9.97944 3.92792C11.4132 3.92792 12.7714 4.45614 13.8278 5.4371L16.6953 2.56966C14.8843 0.909567 12.4696 -0.0713991 10.0549 0.0040598C6.28196 0.0040598 2.81085 2.11691 1.15075 5.51256L4.47094 8.07817C5.15007 5.66348 7.41384 3.92792 9.97944 3.92792Z" fill="#EA4335"/>
</svg>
