<svg width="21" height="24" viewBox="0 0 21 24" fill="none" xmlns="http://www.w3.org/2000/svg">
<path d="M5.7787 23.1864L6.19465 20.5444L5.26812 20.5229H0.84382L3.91848 1.02754C3.92763 0.967968 3.95789 0.913673 4.00373 0.874549C4.04957 0.835424 4.10794 0.814075 4.16821 0.814393H11.6282C14.1048 0.814393 15.8139 1.32975 16.7062 2.34695C17.1246 2.82414 17.391 3.32279 17.5198 3.87156C17.655 4.44736 17.6574 5.1353 17.5254 5.97435L17.5159 6.03559V6.57322L17.9342 6.81022C18.2535 6.97201 18.5406 7.19088 18.7812 7.45601C19.1391 7.864 19.3705 8.38254 19.4683 8.99731C19.5693 9.62958 19.5359 10.3819 19.3705 11.2337C19.1796 12.2135 18.8711 13.0669 18.4543 13.7652C18.0866 14.3907 17.5922 14.9325 17.0029 15.3558C16.4493 15.7487 15.7916 16.0469 15.048 16.2378C14.3275 16.4255 13.5059 16.5201 12.6048 16.5201H12.0243C11.6091 16.5201 11.2059 16.6696 10.8894 16.9377C10.5733 17.2085 10.3636 17.5828 10.2976 17.9938L10.2539 18.2316L9.51904 22.8882L9.48563 23.0592C9.47688 23.1132 9.46177 23.1403 9.43951 23.1586C9.41793 23.1762 9.39102 23.186 9.36316 23.1864H5.7787Z" fill="#253B80"/>
<path d="M18.3303 6.09762C18.308 6.23998 18.2825 6.38552 18.2539 6.53504C17.2701 11.586 13.9044 13.3309 9.60573 13.3309H7.41704C6.89134 13.3309 6.44836 13.7127 6.36644 14.2312L5.24585 21.3381L4.92852 23.3526C4.91588 23.4325 4.92071 23.5142 4.94267 23.5921C4.96463 23.67 5.0032 23.7421 5.05574 23.8037C5.10827 23.8652 5.17351 23.9146 5.24697 23.9485C5.32043 23.9824 5.40036 24 5.48126 24H9.36316C9.82285 24 10.2133 23.666 10.2857 23.2126L10.3239 23.0154L11.0548 18.3772L11.1017 18.1227C11.1733 17.6678 11.5646 17.3337 12.0243 17.3337H12.6048C16.3658 17.3337 19.3101 15.8067 20.1706 11.388C20.5301 9.5421 20.344 8.00079 19.3928 6.91679C19.0913 6.58146 18.7312 6.30387 18.3303 6.09762Z" fill="#179BD7"/>
<path d="M17.3011 5.68724C16.987 5.59637 16.6674 5.52545 16.3444 5.4749C15.706 5.37679 15.0608 5.32972 14.415 5.33413H8.56785C8.34533 5.33396 8.13008 5.4134 7.96103 5.55809C7.79198 5.70279 7.68026 5.90319 7.64609 6.12307L6.40223 14.0014L6.36644 14.2312C6.40519 13.9804 6.53242 13.7518 6.72512 13.5867C6.91782 13.4215 7.16327 13.3308 7.41704 13.3309H9.60573C13.9044 13.3309 17.2701 11.586 18.2539 6.53504C18.2825 6.38552 18.308 6.23998 18.3303 6.09762C18.0707 5.96149 17.8001 5.84736 17.5214 5.75644C17.4484 5.73219 17.3749 5.70913 17.3011 5.68724Z" fill="#222D65"/>
<path d="M7.64609 6.12307C7.68026 5.90319 7.79198 5.70279 7.96103 5.55809C8.13008 5.4134 8.34533 5.33396 8.56785 5.33413H14.415C15.1077 5.33413 15.7543 5.37946 16.3444 5.4749C16.7437 5.53766 17.1367 5.63232 17.5214 5.75644C17.8117 5.85267 18.0813 5.9664 18.3303 6.09762C18.6229 4.23103 18.3286 2.96014 17.3193 1.80933C16.2067 0.5424 14.1986 0 11.6289 0H4.16893C3.64403 0 3.19627 0.381748 3.11515 0.901084L0.00788127 20.5969C-0.00659186 20.6883 -0.00108533 20.7818 0.0240221 20.8709C0.0491295 20.96 0.0932419 21.0427 0.153325 21.1131C0.213408 21.1835 0.288036 21.2401 0.372075 21.279C0.456114 21.3178 0.547569 21.338 0.640151 21.3381L5.24585 21.3381L6.40223 14.0014L7.64609 6.12307Z" fill="#253B80"/>
</svg>
